<?xml version="1.0" encoding="utf-8"?>
<!-- Generator: Adobe Illustrator 28.0.0, SVG Export Plug-In . SVG Version: 6.00 Build 0)  -->
<svg version="1.1" id="Layer_1" xmlns="http://www.w3.org/2000/svg" xmlns:xlink="http://www.w3.org/1999/xlink" x="0px" y="0px"
	 viewBox="0 0 111.76 135.51" style="enable-background:new 0 0 111.76 135.51;" xml:space="preserve">
<style type="text/css">
	.st0{fill:none;}
</style>
<g>
	<g>
		<path class="st0" d="M111.76,135.51c-37.25,0-74.51,0-111.76,0C0,90.34,0,45.17,0,0c37.25,0,74.51,0,111.76,0
			C111.76,45.17,111.76,90.34,111.76,135.51z M59.08,54.55c-0.95,0.09-1.58,0.6-1.91,1.49c-0.33,0.9,0.01,1.87,0.81,2.37
			c0.83,0.52,1.98,0.42,2.65-0.23c0.56-0.54,0.51-1.04-0.2-2.17c-0.29-0.46-0.59-0.93-0.05-1.65c-0.58,0.09-0.94,0.15-1.31,0.21
			L59.08,54.55z M63.26,58.26c0.09,0.28,0.14,0.57,0.28,0.83c1.31,2.41,0.79,4.51-1.51,5.98c-0.25,0.16-0.52,0.3-0.78,0.46
			c-0.14,0.09-0.26,0.21-0.47,0.37c1.54-0.1,3.44-1.94,3.7-3.45C64.74,60.86,64.27,59.49,63.26,58.26c0.8-1.27,0.61-2.98-0.49-4.39
			c-1.04-1.33-2.39-1.81-3.87-1.26c-0.82,0.3-1.59,0.75-2.35,1.19c-1.31,0.76-2.67,1-4.14,0.54c-0.31-0.1-0.63-0.13-0.95-0.2
			c1.26,0.92,3.3,0.95,4.89,0.12c0.66-0.34,1.29-0.74,1.95-1.07c0.74-0.37,1.5-0.61,2.34-0.33c1.89,0.62,3.01,2.71,2.52,4.68
			C63.11,57.76,63.23,58.01,63.26,58.26z M45.88,63.05c0.18,0.18,0.33,0.45,0.55,0.54c3.47,1.34,7.05,2.04,10.77,1.42
			c1.52-0.25,3-0.76,4.48-1.21c0.31-0.09,0.56-0.41,0.83-0.62c-0.04-0.08-0.08-0.16-0.12-0.24c-1.66,1.01-3.5,1.4-5.37,1.69
			c-1.9,0.29-3.82,0.29-5.68-0.1c-1.85-0.38-3.65-0.99-5.47-1.5c1.47-0.1,2.95-0.26,4.43-0.29c2.99-0.08,5.99-0.11,8.98-0.12
			c0.88,0,1.76,0.16,2.63,0.25c0.01-0.06,0.02-0.12,0.03-0.18c-0.57-0.1-1.14-0.25-1.72-0.3c-3.81-0.34-7.61-0.12-11.41,0.16
			C47.82,62.64,46.85,62.88,45.88,63.05z M56.04,77.17c-0.05-0.08-0.11-0.16-0.16-0.24c0.22-0.39,0.35-0.87,0.67-1.15
			c0.41-0.35,0.94-0.59,1.46-0.78c1.68-0.63,2.39-1.9,2.4-3.62c0.01-1.65-0.51-3.19-1.1-4.71c-0.21-0.54-0.47-0.67-1-0.64
			c-3.04,0.12-6.08,0.22-9.12,0.33c-0.08,0-0.16,0.06-0.24,0.09c3.35,0.81,6.68-0.08,10.08,0.03c0.3,0.97,0.67,1.95,0.89,2.97
			c0.61,2.81,0.15,4.76-2.74,5.52c-0.15,0.04-0.33,0.11-0.43,0.22c-0.35,0.38-0.76,0.75-0.98,1.21c-0.3,0.65-0.01,1.03,0.71,1.05
			c1.9,0.06,3.81,0.11,5.71,0.15c0.5,0.01,0.87-0.01,1.2-0.65c0.83-1.61,1.91-3.08,2.8-4.65c0.48-0.86,0.88-1.8,1.11-2.75
			c0.29-1.19-0.42-2.36-1.61-2.64c-0.77-0.18-1.61-0.14-2.4-0.08c-0.6,0.05-1.18,0.29-1.77,0.44c0.02,0.06,0.04,0.13,0.05,0.19
			c0.16,0,0.32,0.02,0.47,0c0.92-0.1,1.84-0.31,2.76-0.3c1.51,0.01,2.4,1.19,2.04,2.64c-0.19,0.78-0.5,1.55-0.89,2.25
			c-0.84,1.52-1.81,2.98-2.64,4.51c-0.26,0.47-0.54,0.62-1.02,0.62C60.21,77.17,58.13,77.17,56.04,77.17z M45.96,67.48
			c-0.95-0.17-1.85-0.46-2.75-0.46c-2.17,0.01-3.26,1.75-2.42,3.74c0.16,0.38,0.37,0.75,0.58,1.11c0.98,1.68,1.97,3.36,2.98,5.03
			c0.11,0.17,0.37,0.36,0.56,0.36c1.53-0.02,3.06-0.07,4.59-0.13c0.23-0.01,0.49-0.03,0.67-0.15c0.32-0.2,0.77-0.43,0.83-0.72
			c0.06-0.29-0.21-0.72-0.46-0.99c-0.29-0.32-0.69-0.54-1.05-0.8c-1.01-0.71-1.73-1.61-1.9-2.87c-0.21-1.54-0.04-3.01,0.71-4.39
			c0.11-0.2,0.18-0.43,0.26-0.65c-0.06-0.03-0.11-0.06-0.17-0.09c-0.18,0.23-0.38,0.44-0.52,0.69c-0.62,1.13-0.82,2.35-0.78,3.63
			c0.06,1.81,0.81,3.21,2.4,4.13c0.3,0.17,0.6,0.37,0.84,0.61c0.18,0.18,0.4,0.49,0.35,0.68c-0.05,0.2-0.37,0.42-0.61,0.47
			c-0.59,0.12-1.19,0.17-1.79,0.2c-1.15,0.07-2.3,0.11-3.42,0.16c-1.11-1.85-2.26-3.75-3.39-5.67c-0.2-0.34-0.36-0.7-0.48-1.08
			c-0.48-1.44,0.22-2.71,1.72-2.86c0.89-0.09,1.81,0.19,2.72,0.32c0.21,0.03,0.41,0.17,0.65,0.27c0.24-0.62,0.46-1.17,0.67-1.72
			c-0.05-0.02-0.1-0.04-0.15-0.06C46.36,66.7,46.13,67.14,45.96,67.48z M55.18,56.61c0.24,1.59,1.25,2.49,2.71,2.94
			c1.43,0.44,2.79,0.02,4.19-0.5c0.22,0.71,0.43,1.37,0.66,2.13c-5.88-0.27-11.58-0.25-17.25,0.52c1.44-0.06,2.87-0.25,4.3-0.26
			c3.92-0.03,7.85-0.02,11.77,0.05c1.66,0.03,1.8-0.08,1.2-1.68c-0.4-1.06-0.55-1.14-1.58-0.79c-0.24,0.08-0.49,0.15-0.73,0.21
			c-2.54,0.66-4.41-0.44-5.03-3c-1.16,0.07-2.34,0.14-3.51,0.2c-0.45,0.02-0.43,0.33-0.4,0.65c0.07,0.81-0.15,1.52-0.73,2.1
			c-0.96,0.96-2.11,0.92-3.31,0.64c-0.59-0.13-1.19-0.21-1.79-0.31c0.73,0.26,1.46,0.44,2.2,0.61c1.96,0.44,3.62-0.54,3.99-2.37
			c0.07-0.35,0.06-0.72,0.1-1.14C53.04,56.61,54.09,56.61,55.18,56.61z M47.27,75.6c-1.66-1.85-2.09-3.92-1.94-6.17
			c-0.78,2.1-0.12,3.96,1,5.8c-0.93,0.02-1.66-0.34-2.05-1.05c-0.69-1.23-1.34-2.49-1.83-3.81c-0.42-1.13,0.04-1.55,1.24-1.4
			c0.25,0.03,0.5,0.09,0.76,0.12c0.23,0.03,0.45,0.06,0.68,0.09c0.01-0.09,0.03-0.19,0.04-0.28c-0.71-0.12-1.42-0.34-2.13-0.34
			c-0.72,0-1.14,0.49-1.03,1.21c0.31,2.01,1.06,3.86,2.58,5.27C45.26,75.68,46.17,75.87,47.27,75.6z M61.89,69.14
			c0.95,2.59-0.32,4.45-2,6.25c0.99,0.41,1.79,0.19,2.47-0.3c1.82-1.31,2.94-3.13,3.44-5.3c0.2-0.86-0.36-1.5-1.29-1.5
			C63.54,68.28,62.65,68.58,61.89,69.14z M58.61,70.39c-2.46,1.47-3.75,3.76-4.39,6.52c-0.46-0.02-0.87-0.04-1.27-0.06
			c-0.76-2.57-1.52-5.06-4.25-6.26c0.19-0.6,0.38-1.19,0.57-1.78c-0.06-0.02-0.13-0.04-0.19-0.06c-0.22,0.61-0.45,1.22-0.67,1.84
			c1.16,0.7,2.23,1.43,2.83,2.61c0.47,0.95,0.86,1.94,1.22,2.94c0.36,1.01,1.22,1.43,2.25,1.04c-0.03-1.43,0.6-2.63,1.34-3.72
			C56.81,72.38,57.75,71.41,58.61,70.39z M49.44,69.02c0.1,0.11,0.18,0.23,0.3,0.32c1.43,1.1,2.95,2.11,3.58,3.94
			c0.17,0.5,0.55,0.43,0.85,0.05c0.58-0.72,1.17-1.44,1.73-2.18c0.69-0.92,1.6-1.55,2.6-2.14c0.09,0.42,0.16,0.76,0.24,1.1
			c0.07-0.02,0.14-0.03,0.21-0.05c-0.1-0.51-0.2-1.01-0.3-1.53c-2.36,0.97-3.5,3.01-4.99,4.94C52.91,71.22,51.19,70.11,49.44,69.02z
			 M50.5,57.04c-0.24,0.83-1.24,1.39-2.27,1.29c-0.91-0.09-1.56-0.8-1.61-1.72c-0.04-0.91,0.62-1.84,1.47-2.04
			c0.29-0.07,0.59-0.1,0.88-0.15c-1.3-0.25-2.2,0.32-2.51,1.47c-0.3,1.14,0.17,2.18,1.19,2.58c1.03,0.4,2.49-0.08,3-1
			c0.16-0.29,0.3-0.62-0.14-0.8c-0.84-0.34-1.07-0.71-1.02-1.62c0.01-0.18,0-0.36,0-0.73C48.83,55.66,49.25,56.61,50.5,57.04z
			 M50.84,53.71c-1.34-1.36-3.88-1.15-5.49,0.37c-0.89,0.84-1.52,2.68-0.63,3.8c-0.45-1.85,0.03-3.24,1.6-4.16
			C47.81,52.84,49.32,52.82,50.84,53.71z M46.93,65.93c-1.39-0.73-2.9-1.35-3.49-2.98c-0.58-1.59,0.03-3.06,0.69-4.49
			C41.77,61.34,43.18,65.15,46.93,65.93z"/>
		<path d="M56.04,77.17c2.09,0,4.17,0,6.26,0c0.48,0,0.76-0.15,1.02-0.62c0.84-1.53,1.8-2.98,2.64-4.51c0.39-0.7,0.7-1.47,0.89-2.25
			c0.36-1.46-0.53-2.63-2.04-2.64c-0.92-0.01-1.84,0.2-2.76,0.3c-0.16,0.02-0.32,0-0.47,0c-0.02-0.06-0.04-0.13-0.05-0.19
			c0.59-0.15,1.17-0.39,1.77-0.44c0.8-0.06,1.64-0.1,2.4,0.08c1.19,0.28,1.9,1.45,1.61,2.64c-0.23,0.95-0.63,1.89-1.11,2.75
			c-0.88,1.58-1.97,3.05-2.8,4.65c-0.33,0.63-0.7,0.66-1.2,0.65c-1.9-0.04-3.81-0.08-5.71-0.15c-0.73-0.02-1.01-0.4-0.71-1.05
			c0.21-0.46,0.63-0.82,0.98-1.21c0.1-0.11,0.28-0.18,0.43-0.22c2.89-0.75,3.35-2.71,2.74-5.52c-0.22-1.01-0.59-1.99-0.89-2.97
			c-3.4-0.12-6.73,0.77-10.08-0.03c0.08-0.03,0.16-0.09,0.24-0.09c3.04-0.11,6.08-0.2,9.12-0.33c0.53-0.02,0.79,0.11,1,0.64
			c0.59,1.52,1.1,3.06,1.1,4.71c-0.01,1.72-0.72,2.98-2.4,3.62c-0.52,0.19-1.05,0.43-1.46,0.78c-0.32,0.27-0.45,0.76-0.67,1.15
			C55.93,77.02,55.99,77.09,56.04,77.17z"/>
		<path d="M45.96,67.48c0.17-0.34,0.4-0.78,0.63-1.23c0.05,0.02,0.1,0.04,0.15,0.06c-0.21,0.55-0.43,1.1-0.67,1.72
			c-0.24-0.1-0.43-0.23-0.65-0.27c-0.9-0.14-1.83-0.41-2.72-0.32c-1.5,0.14-2.2,1.41-1.72,2.86c0.12,0.37,0.29,0.74,0.48,1.08
			c1.13,1.91,2.28,3.82,3.39,5.67c1.12-0.05,2.27-0.09,3.42-0.16c0.6-0.04,1.21-0.08,1.79-0.2c0.24-0.05,0.56-0.27,0.61-0.47
			c0.05-0.19-0.17-0.5-0.35-0.68c-0.24-0.24-0.54-0.44-0.84-0.61c-1.59-0.92-2.35-2.31-2.4-4.13c-0.04-1.28,0.16-2.5,0.78-3.63
			c0.14-0.25,0.35-0.46,0.52-0.69c0.06,0.03,0.11,0.06,0.17,0.09c-0.09,0.22-0.15,0.45-0.26,0.65c-0.75,1.38-0.92,2.85-0.71,4.39
			c0.17,1.27,0.9,2.16,1.9,2.87c0.36,0.26,0.76,0.47,1.05,0.8c0.24,0.27,0.52,0.7,0.46,0.99c-0.07,0.29-0.51,0.52-0.83,0.72
			c-0.19,0.11-0.45,0.14-0.67,0.15c-1.53,0.06-3.06,0.12-4.59,0.13c-0.19,0-0.45-0.19-0.56-0.36c-1.01-1.67-1.99-3.35-2.98-5.03
			c-0.21-0.36-0.42-0.73-0.58-1.11c-0.83-1.99,0.25-3.72,2.42-3.74C44.11,67.02,45.01,67.31,45.96,67.48z"/>
		<path d="M55.18,56.61c-1.1,0-2.14,0-3.22,0c-0.03,0.42-0.03,0.79-0.1,1.14c-0.37,1.82-2.03,2.8-3.99,2.37
			c-0.74-0.16-1.47-0.34-2.2-0.61c0.6,0.1,1.2,0.18,1.79,0.31c1.2,0.28,2.35,0.32,3.31-0.64c0.58-0.58,0.81-1.29,0.73-2.1
			c-0.03-0.31-0.05-0.62,0.4-0.65c1.18-0.06,2.35-0.13,3.51-0.2c0.62,2.56,2.49,3.65,5.03,3c0.25-0.06,0.49-0.13,0.73-0.21
			c1.03-0.35,1.19-0.27,1.58,0.79c0.6,1.6,0.46,1.71-1.2,1.68c-3.92-0.07-7.85-0.08-11.77-0.05c-1.43,0.01-2.86,0.21-4.3,0.26
			c5.67-0.77,11.37-0.8,17.25-0.52c-0.24-0.76-0.44-1.42-0.66-2.13c-1.4,0.52-2.76,0.94-4.19,0.5
			C56.43,59.09,55.42,58.19,55.18,56.61z"/>
		<path d="M47.27,75.6c-1.1,0.27-2.01,0.08-2.68-0.54c-1.52-1.41-2.26-3.26-2.58-5.27c-0.11-0.72,0.31-1.21,1.03-1.21
			c0.71,0,1.42,0.22,2.13,0.34c-0.01,0.09-0.03,0.19-0.04,0.28c-0.23-0.03-0.45-0.06-0.68-0.09c-0.25-0.04-0.5-0.09-0.76-0.12
			c-1.2-0.16-1.66,0.27-1.24,1.4c0.49,1.32,1.14,2.58,1.83,3.81c0.4,0.7,1.12,1.07,2.05,1.05c-1.12-1.84-1.79-3.7-1-5.8
			C45.19,71.68,45.61,73.75,47.27,75.6z"/>
		<path d="M45.86,63.04c1.82,0.51,3.62,1.12,5.47,1.5c1.87,0.39,3.78,0.39,5.68,0.1c1.87-0.29,3.71-0.68,5.37-1.69
			c0.04,0.08,0.08,0.16,0.12,0.24c-0.28,0.21-0.52,0.53-0.83,0.62c-1.48,0.44-2.96,0.95-4.48,1.21c-3.72,0.62-7.3-0.08-10.77-1.42
			c-0.22-0.09-0.37-0.35-0.55-0.54L45.86,63.04z"/>
		<path d="M61.89,69.14c0.76-0.55,1.65-0.85,2.62-0.85c0.93,0,1.49,0.64,1.29,1.5c-0.5,2.17-1.62,3.98-3.44,5.3
			c-0.68,0.49-1.48,0.71-2.47,0.3C61.57,73.59,62.83,71.72,61.89,69.14z M60.62,75.23c0.96-0.05,1.69-0.31,2.28-0.88
			c1.16-1.12,1.97-2.45,2.47-3.98c0.06-0.17,0.09-0.36,0.1-0.54c0.08-0.87-0.23-1.26-1.1-1.17c-0.72,0.07-1.41,0.32-2.13,0.49
			C63.05,71.58,62.14,73.41,60.62,75.23z"/>
		<path d="M58.61,70.39c-0.86,1.02-1.81,1.99-2.56,3.09c-0.75,1.09-1.38,2.29-1.34,3.72c-1.03,0.38-1.89-0.03-2.25-1.04
			c-0.36-1-0.75-2-1.22-2.94c-0.59-1.18-1.66-1.91-2.83-2.61c0.23-0.62,0.45-1.23,0.67-1.84c0.06,0.02,0.13,0.04,0.19,0.06
			c-0.19,0.59-0.38,1.19-0.57,1.78c2.73,1.19,3.5,3.69,4.25,6.26c0.4,0.02,0.81,0.04,1.27,0.06C54.86,74.15,56.16,71.86,58.61,70.39
			z"/>
		<path d="M63.27,58.25c-0.04-0.24-0.16-0.5-0.1-0.72c0.49-1.97-0.63-4.06-2.52-4.68c-0.85-0.28-1.61-0.04-2.34,0.33
			c-0.66,0.33-1.29,0.73-1.95,1.07c-1.59,0.82-3.62,0.8-4.89-0.12c0.32,0.06,0.65,0.1,0.95,0.2c1.47,0.46,2.83,0.22,4.14-0.54
			c0.76-0.44,1.53-0.88,2.35-1.19c1.48-0.55,2.83-0.06,3.87,1.26c1.1,1.41,1.29,3.13,0.48,4.4L63.27,58.25z"/>
		<path d="M49.44,69.02c1.75,1.09,3.47,2.2,4.21,4.45c1.49-1.93,2.63-3.97,4.99-4.94c0.1,0.52,0.2,1.02,0.3,1.53
			c-0.07,0.02-0.14,0.03-0.21,0.05c-0.07-0.34-0.15-0.68-0.24-1.1c-1,0.59-1.9,1.23-2.6,2.14c-0.56,0.74-1.14,1.46-1.73,2.18
			c-0.3,0.37-0.68,0.44-0.85-0.05c-0.64-1.84-2.16-2.84-3.58-3.94C49.63,69.26,49.54,69.13,49.44,69.02z"/>
		<path d="M45.88,63.05c0.98-0.17,1.95-0.41,2.93-0.49c3.8-0.28,7.6-0.5,11.41-0.16c0.58,0.05,1.14,0.2,1.72,0.3
			c-0.01,0.06-0.02,0.12-0.03,0.18c-0.88-0.09-1.76-0.25-2.63-0.25c-2.99,0-5.99,0.04-8.98,0.12c-1.48,0.04-2.95,0.19-4.43,0.29
			C45.86,63.04,45.88,63.05,45.88,63.05z"/>
		<path d="M50.5,57.04c-1.25-0.43-1.67-1.39-1-2.71c0,0.37,0.01,0.55,0,0.73c-0.06,0.91,0.17,1.28,1.02,1.62
			c0.45,0.18,0.31,0.51,0.14,0.8c-0.5,0.92-1.97,1.4-3,1c-1.02-0.4-1.49-1.43-1.19-2.58c0.31-1.15,1.21-1.72,2.51-1.47
			c-0.29,0.05-0.59,0.08-0.88,0.15c-0.85,0.2-1.52,1.13-1.47,2.04c0.05,0.92,0.7,1.63,1.61,1.72C49.25,58.44,50.25,57.87,50.5,57.04
			z"/>
		<path d="M59.06,54.56c0.37-0.06,0.74-0.12,1.31-0.21c-0.54,0.73-0.24,1.19,0.05,1.65c0.71,1.13,0.76,1.64,0.2,2.17
			c-0.67,0.65-1.81,0.75-2.65,0.23c-0.8-0.5-1.14-1.47-0.81-2.37c0.32-0.89,0.96-1.4,1.91-1.49c-0.23,0.11-0.47,0.19-0.69,0.32
			c-0.94,0.55-1.35,1.77-0.91,2.63c0.43,0.83,1.47,1.2,2.39,0.83c0.88-0.34,1.06-0.94,0.58-1.75c-0.27-0.45-0.6-0.91-0.69-1.41
			C59.67,54.69,59.48,54.56,59.06,54.56z"/>
		<path d="M63.26,58.27c1.01,1.22,1.49,2.59,1.21,4.18c-0.26,1.52-2.16,3.35-3.7,3.45c0.21-0.17,0.33-0.29,0.47-0.37
			c0.25-0.16,0.53-0.29,0.78-0.46c2.3-1.48,2.83-3.58,1.51-5.98c-0.14-0.25-0.19-0.55-0.27-0.83
			C63.27,58.25,63.26,58.27,63.26,58.27z"/>
		<path d="M50.84,53.71c-1.52-0.89-3.03-0.87-4.53,0.01c-1.56,0.92-2.05,2.3-1.6,4.16c-0.89-1.12-0.26-2.96,0.63-3.8
			C46.97,52.55,49.51,52.34,50.84,53.71z"/>
		<path d="M46.93,65.93c-3.75-0.78-5.16-4.59-2.8-7.47c-0.66,1.43-1.27,2.9-0.69,4.49C44.03,64.58,45.53,65.21,46.93,65.93z"/>
		<path class="st0" d="M60.62,75.23c1.51-1.82,2.42-3.65,1.62-6.09c0.71-0.17,1.41-0.42,2.13-0.49c0.87-0.09,1.18,0.3,1.1,1.17
			c-0.02,0.18-0.05,0.37-0.1,0.54c-0.5,1.52-1.31,2.86-2.47,3.98C62.31,74.92,61.59,75.18,60.62,75.23z"/>
		<path class="st0" d="M59.06,54.56c0.42,0,0.61,0.12,0.7,0.61c0.09,0.5,0.42,0.96,0.69,1.41c0.48,0.81,0.3,1.4-0.58,1.75
			c-0.92,0.36-1.96,0-2.39-0.83c-0.44-0.86-0.03-2.08,0.91-2.63c0.22-0.13,0.46-0.21,0.69-0.32C59.08,54.55,59.06,54.56,59.06,54.56
			z"/>
	</g>
</g>
</svg>
