<?xml version="1.0" encoding="utf-8"?>
<!-- Generator: Adobe Illustrator 28.0.0, SVG Export Plug-In . SVG Version: 6.00 Build 0)  -->
<svg version="1.1" id="Layer_1" xmlns="http://www.w3.org/2000/svg" xmlns:xlink="http://www.w3.org/1999/xlink" x="0px" y="0px"
	 viewBox="0 0 111.76 135.51" style="enable-background:new 0 0 111.76 135.51;" xml:space="preserve">
<style type="text/css">
	.st0{fill:none;}
</style>
<g>
	<g>
		<path class="st0" d="M0,135.51C0,90.34,0,45.17,0,0c37.25,0,74.51,0,111.76,0c0,45.17,0,90.34,0,135.51
			C74.51,135.51,37.25,135.51,0,135.51z M58.69,72.62c0-0.09,0.03-0.24,0-0.25c-0.67-0.28-0.56-0.86-0.47-1.37
			c0.1-0.54,0.27-1.08,0.48-1.59c0.51-1.26,0.8-2.57,0.73-3.93c-0.01-0.23-0.08-0.46-0.12-0.69c-0.02,1.87-0.55,3.59-1.2,5.29
			c-0.16,0.4-0.18,0.86-0.24,1.29c-0.08,0.64,0.17,1.08,0.83,1.23c0.14,0.07,0.28,0.21,0.43,0.21c0.26,0.01,0.53-0.07,0.79-0.11
			c-0.05-0.23-0.07-0.48-0.17-0.69c-0.46-0.93-0.47-1.87-0.09-2.83c0.23-0.58,0.52-1.15,0.68-1.75c0.12-0.46,0.07-0.97,0.1-1.45
			c-0.4,0.75-0.55,1.53-0.87,2.23c-0.62,1.36-0.91,2.71-0.2,4.12C59.12,72.46,58.91,72.54,58.69,72.62z M62.73,49.02
			c0.65,0.59,1.06,0.54,1.96-0.35c-0.14,0.52-0.24,0.89-0.34,1.27c0.08,0.02,0.17,0.04,0.25,0.06c0.14-0.58,0.29-1.17,0.45-1.84
			c-0.87,0.12-0.92,1.4-1.89,0.87c-0.07-0.27-0.14-0.55-0.24-0.97c-0.44,0.37-0.75,0.85-1.13,0.92c-1.26,0.21-2.12,0.95-2.77,1.93
			c-0.65,0.98-1.14,2.06-1.67,3.12c-0.39,0.78-0.58,0.89-1.4,0.58c-0.54-0.2-1.05-0.5-1.57-0.74c-1.11-0.51-2.26-0.62-3.22,0.19
			c-0.55,0.46-1.05,0.55-1.7,0.55c-1.5,0-2.82,1.14-2.91,2.48c-0.02,0.35,0.17,0.71,0.28,1.12c-1.22,0.76-2.25,0.27-2.43-1.42
			c-0.15,0.09-0.31,0.14-0.39,0.25c-0.59,0.76-0.08,2.91,0.78,3.36c0.89,0.46,2.44-0.22,2.64-1.07c-0.52,0.29-1.07,0.69-1.68,0.89
			c-0.3,0.1-0.72-0.17-1.08-0.27c0.29-0.45-0.23-0.55-0.34-0.83c-0.14-0.35-0.22-0.72-0.32-1.08c0.81,0.78,1.71,1,2.68,0.57
			c0.6-0.27,0.62-0.36,0.25-0.88c-0.06-0.08-0.09-0.24-0.05-0.33c0.24-0.56,0.4-1.2,0.79-1.64c0.6-0.67,1.49-0.79,2.37-0.84
			c0.35-0.02,0.75-0.11,1.01-0.32c1.05-0.84,2.14-0.91,3.32-0.35c0.5,0.24,1,0.5,1.53,0.67c0.86,0.28,1.35,0.03,1.72-0.79
			c0.23-0.51,0.41-1.04,0.67-1.53c0.26-0.5,0.58-0.98,0.88-1.46c0.06,0.03,0.11,0.06,0.17,0.09c-0.11,0.42-0.22,0.84-0.33,1.26
			c0-0.1,0-0.2,0-0.3c-0.07-0.02-0.15-0.04-0.22-0.06c-0.2,0.59-0.47,1.17-0.57,1.78c-0.1,0.63-0.02,1.29-0.02,1.94
			c-0.19-0.05-0.36-0.09-0.51-0.14c-0.54,1.84-1.96,2.4-3.56,1.46c-0.24-0.14-0.48-0.29-0.73-0.41c-1-0.47-2.46-0.39-3.12,0.25
			c1.68-0.72,3.08-0.06,4.48,0.77c0.65,0.39,1.36,0.22,1.97-0.2c0.47-0.33,0.92-0.68,1.37-1.03c-0.07-0.06-0.14-0.11-0.21-0.17
			c0.19,0.16,0.38,0.32,0.58,0.49c0.09-1.55-0.28-3.03,0.56-4.38c0,0.39-0.01,0.79,0.02,1.18c0.1,1.26,0.27,2.5,1.08,3.53
			c0.7,0.89,1.56,0.82,2.09-0.18c0.23-0.44,0.35-0.93,0.55-1.45c0.09,0.19,0.16,0.35,0.23,0.52c0.08,0.17,0.14,0.34,0.24,0.5
			c0.38,0.62,0.83,0.66,1.38,0.12c0.63-0.42,0.54-1.05,0.49-1.68c-0.08-0.95-0.13-1.89-0.24-2.84c-0.07-0.65-0.22-1.29-0.34-1.94
			c-0.06,0.77,0.02,1.52,0.07,2.27c0.05,0.88,0.1,1.76,0.11,2.64c0,0.5-0.08,1.01-0.13,1.51c-0.57,0.32-0.87,0-1.08-0.47
			c-0.3-0.69-0.58-1.39-0.87-2.09c-0.16,0.24-0.19,0.47-0.23,0.7c-0.11,0.59-0.14,1.21-0.36,1.76c-0.15,0.36-0.55,0.83-0.87,0.85
			c-0.32,0.02-0.8-0.38-0.99-0.71c-0.78-1.4-0.97-2.91-0.8-4.5c0.13-1.16,0.69-2.04,1.59-2.68c0.52-0.38,1.17-0.58,1.82-0.88
			C62.77,48.77,62.75,48.89,62.73,49.02c-0.11,0.28-0.22,0.55-0.31,0.84c-0.2,0.64-0.47,1.27-0.1,1.94c0.21,0.38,0.4,0.77,0.62,1.2
			c0.15-0.14,0.28-0.25,0.57-0.52c0.08,1.2,0.14,2.22,0.22,3.44c0.48-1.47,0.18-2.67-0.33-3.92c-0.19,0.16-0.31,0.26-0.43,0.36
			c-0.53-0.72-0.75-1.41-0.39-2.25C62.72,49.78,62.68,49.38,62.73,49.02z M60.43,64.52c-0.05,0.04-0.09,0.07-0.14,0.11
			c-0.68-0.65-1.4-1.26-2.04-1.95c-0.59-0.64-0.74-1.42-0.4-2.27c0.15-0.36,0.29-0.74,0.34-1.13c0.11-1-0.47-1.44-1.41-1.1
			c-0.54,0.2-1.07,0.43-1.62,0.63c-0.46,0.16-0.86,0.13-1.24-0.29c-0.3-0.33-0.71-0.62-1.13-0.78c-0.35-0.14-0.96-0.23-1.13-0.04
			c-0.23,0.24-0.3,0.83-0.18,1.19c0.49,1.54,1.46,2.75,2.84,3.58c0.37,0.22,0.87,0.21,1.31,0.31c0.12,0.03,0.32,0.05,0.34,0.11
			c0.03,0.12-0.01,0.29-0.08,0.4c-0.26,0.38-0.56,0.74-0.84,1.11c-0.88,1.18-1.02,2.46-0.24,3.71c0.68,1.08,0.86,2.18,0.58,3.39
			c-0.04,0.17,0.01,0.35,0.02,0.53c0.24-0.11,0.36-0.24,0.39-0.38c0.27-1.24,0.28-2.43-0.46-3.55c-0.83-1.26-0.86-2.51,0.15-3.73
			c0.29-0.36,0.53-0.76,0.81-1.17c0.39,0.05,0.81,0.16,1.21,0.14c0.46-0.02,0.79,0.12,1.1,0.44c0.29,0.3,0.62,0.56,0.96,0.81
			c1.87,1.37,2.37,3.53,3.21,5.5c0.02,0.04,0.02,0.09,0.02,0.14c0.05,0.56-0.19,0.78-0.74,0.69c-0.5-0.08-0.82-0.36-0.82-0.88
			c0-0.44,0.05-0.88,0.1-1.32c0.1-0.89-0.07-1.72-0.56-2.48c0.37,1.15,0.44,2.31,0.21,3.49c-0.03,0.16-0.02,0.33,0.01,0.49
			c0.1,0.57,0.81,1.08,1.4,1.02c0.54-0.06,0.78-0.47,0.7-1.22c-0.02-0.16-0.05-0.32-0.1-0.47c-0.46-1.19-0.93-2.37-1.38-3.57
			c-0.09-0.25-0.2-0.54-0.15-0.79c0.27-1.36,0.55-2.72,0.91-4.07c0.24-0.91,0.36-1.8,0.08-2.72c-0.54,0.04-1.03,0.08-1.52,0.12
			c-0.08,0.58-0.12,1.13-0.23,1.67c-0.1,0.5-0.44,0.88-0.96,0.84c-0.75-0.05-0.65,0.28-0.45,0.75
			C59.66,62.7,60.04,63.61,60.43,64.52z M51.92,60.73c-0.42,0.57-0.78,1.1-1.19,1.59c-0.63,0.74-0.94,1.58-0.9,2.56
			c0.02,0.56,0.06,1.14-0.06,1.67c-0.31,1.27-0.28,2.53-0.13,3.81c0.09,0.75,0.19,1.53-0.65,2.22c0.81-0.12,1.06-0.53,1.09-1.06
			c0.03-0.6-0.04-1.21-0.03-1.81c0.01-0.85,0.04-1.71,0.08-2.56c0.03-0.69,0.14-1.38,0.13-2.07c0-0.81,0.1-1.57,0.63-2.22
			c0.41-0.5,0.81-1.01,1.11-1.38c0.36,0.3,0.74,0.6,1.11,0.92c0.4,0.35,0.41,0.74,0.12,1.18c-0.25,0.39-0.51,0.78-0.68,1.21
			c-0.21,0.55,0,0.92,0.75,1.28c-0.77-0.96-0.19-1.57,0.24-2.23c0.47-0.72,0.38-1.15-0.28-1.76c-0.38-0.35-0.82-0.7-1.07-1.14
			c-0.44-0.78-1.08-0.92-1.7-0.23c-0.22,0.24-0.4,0.52-0.73,0.96c-0.12-1.33-0.22-2.45-0.32-3.55c-0.56,0.96-0.21,3.85,0.57,4.28
			c0.2-0.41,0.38-0.84,0.6-1.23C50.86,60.68,51.17,60.3,51.92,60.73z M48.75,72.86c0.05-0.02,0.11-0.03,0.16-0.05
			c0.02-0.06,0.05-0.12,0.05-0.18c-0.06-1.38-0.16-2.76-0.16-4.15c-0.01-1.95,0.08-3.9,0.08-5.85c0-1.5-0.49-3.01,0.16-4.5
			c-0.58,0.56-0.64,1.27-0.63,2c0.03,2.51,0.08,5.02,0.08,7.52c0,1.39-0.08,2.78-0.07,4.18C48.43,72.17,48.64,72.51,48.75,72.86z
			 M55.19,71.95c-0.13-0.29-0.15-0.42-0.23-0.48c-0.68-0.61-0.84-1.35-0.78-2.26c0.06-1.08-0.28-2.1-1.07-2.93
			c0.63,1.23,0.8,2.52,0.68,3.9C53.73,70.95,54.25,71.55,55.19,71.95z M47.43,57.95c0.74,0.26,0.57,0.71,0.32,1.17
			c0.09,0.01,0.17,0.01,0.26,0.02c0.09-0.39,0.17-0.78,0.26-1.17c-0.05-0.05-0.1-0.11-0.15-0.16c0.68-0.23,1.36-0.46,1.98-0.67
			C48.97,56.35,48.45,57.76,47.43,57.95z M63.51,50.69c0.07-0.02,0.14-0.05,0.2-0.07c0-0.3,0-0.6,0-0.88c-0.24,0-0.43,0-0.69,0
			C63.2,50.09,63.35,50.39,63.51,50.69z"/>
		<path d="M60.43,64.52c-0.38-0.91-0.76-1.82-1.15-2.73c-0.2-0.47-0.3-0.8,0.45-0.75c0.53,0.04,0.86-0.34,0.96-0.84
			c0.11-0.54,0.15-1.09,0.23-1.67c0.49-0.04,0.98-0.08,1.52-0.12c0.29,0.92,0.16,1.8-0.08,2.72c-0.35,1.34-0.63,2.7-0.91,4.07
			c-0.05,0.24,0.06,0.54,0.15,0.79c0.45,1.19,0.92,2.38,1.38,3.57c0.06,0.15,0.09,0.31,0.1,0.47c0.08,0.75-0.16,1.16-0.7,1.22
			c-0.59,0.07-1.3-0.44-1.4-1.02c-0.03-0.16-0.04-0.33-0.01-0.49c0.23-1.18,0.16-2.34-0.21-3.49c0.49,0.76,0.66,1.59,0.56,2.48
			c-0.05,0.44-0.1,0.88-0.1,1.32c0,0.52,0.33,0.8,0.82,0.88c0.55,0.09,0.79-0.14,0.74-0.69c0-0.05,0-0.1-0.02-0.14
			c-0.84-1.97-1.34-4.13-3.21-5.5c-0.34-0.25-0.67-0.51-0.96-0.81c-0.31-0.33-0.64-0.47-1.1-0.44c-0.41,0.02-0.82-0.09-1.21-0.14
			c-0.28,0.41-0.52,0.81-0.81,1.17c-1.01,1.21-0.98,2.47-0.15,3.73c0.74,1.12,0.73,2.31,0.46,3.55c-0.03,0.14-0.15,0.26-0.39,0.38
			c-0.01-0.18-0.06-0.36-0.02-0.53c0.28-1.21,0.09-2.31-0.58-3.39c-0.78-1.25-0.65-2.52,0.24-3.71c0.28-0.37,0.57-0.73,0.84-1.11
			c0.07-0.11,0.11-0.28,0.08-0.4c-0.01-0.06-0.22-0.08-0.34-0.11c-0.44-0.1-0.95-0.09-1.31-0.31c-1.38-0.83-2.35-2.04-2.84-3.58
			c-0.11-0.36-0.05-0.94,0.18-1.19c0.18-0.19,0.78-0.09,1.13,0.04c0.42,0.16,0.83,0.45,1.13,0.78c0.38,0.42,0.78,0.45,1.24,0.29
			c0.55-0.19,1.08-0.43,1.62-0.63c0.94-0.34,1.53,0.1,1.41,1.1c-0.04,0.38-0.19,0.76-0.34,1.13c-0.35,0.85-0.2,1.62,0.4,2.27
			c0.64,0.69,1.36,1.3,2.04,1.95C60.33,64.6,60.38,64.56,60.43,64.52z M55.94,62.48c0.29,0.71,1.13,0.43,1.87,0.57
			c-0.9-1.15-0.65-2.29-0.15-3.45c0.07-0.17,0.1-0.36,0.11-0.54c0.02-0.52-0.23-0.75-0.74-0.59c-0.35,0.11-0.69,0.27-1.03,0.42
			c-0.92,0.41-1.76,0.37-2.54-0.35c-0.27-0.25-0.6-0.44-0.94-0.58c-0.21-0.09-0.6-0.12-0.69-0.01c-0.14,0.17-0.16,0.52-0.09,0.75
			c0.45,1.38,1.4,2.4,2.57,3.19C54.72,62.16,55.26,62.24,55.94,62.48z M61.08,58.94c0.11,1.6-0.15,2.1-1.44,2.65
			c0.41,0.87,0.83,1.73,1.24,2.6c0.07,0,0.14,0,0.21,0c-0.03-1.81,1.2-3.36,1.02-5.25C61.71,58.94,61.39,58.94,61.08,58.94z"/>
		<path d="M59.01,52.47c0.11-0.42,0.22-0.84,0.33-1.26c-0.06-0.03-0.11-0.06-0.17-0.09c-0.3,0.49-0.62,0.96-0.88,1.46
			c-0.26,0.49-0.44,1.02-0.67,1.53c-0.37,0.83-0.86,1.07-1.72,0.79c-0.53-0.17-1.02-0.44-1.53-0.67c-1.18-0.56-2.27-0.49-3.32,0.35
			c-0.26,0.21-0.67,0.3-1.01,0.32c-0.88,0.05-1.77,0.16-2.37,0.84c-0.39,0.44-0.55,1.08-0.79,1.64c-0.04,0.09-0.01,0.25,0.05,0.33
			c0.37,0.52,0.35,0.61-0.25,0.88c-0.97,0.43-1.88,0.21-2.68-0.57c0.1,0.36,0.18,0.73,0.32,1.08c0.11,0.28,0.64,0.38,0.34,0.83
			c0.36,0.1,0.78,0.37,1.08,0.27c0.61-0.2,1.16-0.6,1.68-0.89c-0.21,0.85-1.75,1.53-2.64,1.07c-0.86-0.44-1.37-2.6-0.78-3.36
			c0.08-0.11,0.24-0.15,0.39-0.25c0.18,1.68,1.21,2.17,2.43,1.42c-0.11-0.41-0.31-0.77-0.28-1.12c0.09-1.34,1.41-2.48,2.91-2.48
			c0.65,0,1.15-0.09,1.7-0.55c0.96-0.81,2.11-0.7,3.22-0.19c0.53,0.24,1.03,0.54,1.57,0.74c0.83,0.31,1.01,0.19,1.4-0.58
			c0.53-1.05,1.02-2.14,1.67-3.12c0.65-0.97,1.51-1.71,2.77-1.93c0.38-0.06,0.69-0.54,1.13-0.92c0.11,0.42,0.18,0.7,0.24,0.97
			c0.97,0.53,1.02-0.75,1.89-0.87c-0.16,0.67-0.31,1.25-0.45,1.84c-0.08-0.02-0.17-0.04-0.25-0.06c0.1-0.37,0.2-0.75,0.34-1.27
			c-0.9,0.89-1.31,0.94-1.96,0.35l0,0c0.02-0.12,0.04-0.25,0.06-0.41c-0.65,0.31-1.29,0.51-1.82,0.88c-0.9,0.64-1.46,1.52-1.59,2.68
			c-0.17,1.59,0.01,3.11,0.8,4.5c0.19,0.34,0.67,0.74,0.99,0.71c0.32-0.02,0.72-0.49,0.87-0.85c0.22-0.54,0.25-1.17,0.36-1.76
			c0.04-0.23,0.08-0.46,0.23-0.7c0.29,0.7,0.56,1.4,0.87,2.09c0.21,0.47,0.51,0.79,1.08,0.47l0.04,0.03c-0.55,0.54-1,0.5-1.38-0.12
			c-0.1-0.16-0.16-0.33-0.24-0.5c-0.07-0.16-0.15-0.32-0.23-0.52c-0.19,0.52-0.31,1.01-0.55,1.45c-0.53,1-1.4,1.07-2.09,0.18
			c-0.81-1.03-0.98-2.27-1.08-3.53c-0.03-0.39-0.01-0.79-0.02-1.18C59.02,52.45,59.01,52.47,59.01,52.47z"/>
		<path d="M51.92,60.73c-0.75-0.43-1.06-0.05-1.31,0.4c-0.22,0.4-0.4,0.82-0.6,1.23c-0.78-0.43-1.13-3.32-0.57-4.28
			c0.1,1.1,0.2,2.22,0.32,3.55c0.33-0.44,0.51-0.72,0.73-0.96c0.61-0.68,1.26-0.55,1.7,0.23c0.25,0.44,0.69,0.78,1.07,1.14
			c0.66,0.61,0.76,1.04,0.28,1.76c-0.44,0.66-1.01,1.27-0.24,2.23c-0.75-0.36-0.96-0.73-0.75-1.28c0.16-0.43,0.42-0.82,0.68-1.21
			c0.29-0.44,0.28-0.83-0.12-1.18c-0.37-0.32-0.75-0.62-1.11-0.92c-0.3,0.37-0.7,0.88-1.11,1.38c-0.54,0.65-0.64,1.41-0.63,2.22
			c0,0.69-0.1,1.38-0.13,2.07c-0.04,0.85-0.07,1.71-0.08,2.56c-0.01,0.6,0.07,1.21,0.03,1.81c-0.03,0.53-0.28,0.94-1.09,1.06
			c0.84-0.69,0.74-1.47,0.65-2.22c-0.15-1.28-0.18-2.54,0.13-3.81c0.13-0.53,0.08-1.11,0.06-1.67c-0.04-0.98,0.27-1.81,0.9-2.56
			C51.14,61.83,51.5,61.3,51.92,60.73z"/>
		<path d="M48.75,72.86c-0.11-0.35-0.32-0.69-0.32-1.04c-0.01-1.39,0.07-2.78,0.07-4.18c-0.01-2.51-0.06-5.02-0.08-7.52
			c-0.01-0.73,0.05-1.43,0.63-2c-0.65,1.49-0.16,3-0.16,4.5c0,1.95-0.09,3.9-0.08,5.85c0.01,1.38,0.11,2.77,0.16,4.15
			c0,0.06-0.03,0.12-0.05,0.18C48.86,72.83,48.81,72.84,48.75,72.86z"/>
		<path d="M59.02,52.45c-0.84,1.35-0.48,2.83-0.56,4.38c-0.19-0.16-0.38-0.32-0.58-0.49c0.07,0.06,0.14,0.11,0.21,0.17
			c-0.46,0.34-0.9,0.7-1.37,1.03c-0.61,0.43-1.33,0.59-1.97,0.2c-1.4-0.83-2.79-1.49-4.48-0.77c0.66-0.64,2.13-0.72,3.12-0.25
			c0.25,0.12,0.49,0.27,0.73,0.41c1.6,0.94,3.02,0.38,3.56-1.46c0.16,0.04,0.32,0.09,0.51,0.14c0-0.65-0.08-1.31,0.02-1.94
			c0.1-0.61,0.37-1.19,0.57-1.78c0.07,0.02,0.15,0.04,0.22,0.06c0,0.1,0,0.2,0,0.3C59.01,52.47,59.02,52.45,59.02,52.45z"/>
		<path d="M58.69,72.63c0.21-0.09,0.43-0.17,0.68-0.27c-0.71-1.41-0.42-2.76,0.2-4.12c0.32-0.7,0.47-1.48,0.87-2.23
			c-0.03,0.49,0.02,0.99-0.1,1.45c-0.16,0.6-0.45,1.16-0.68,1.75c-0.37,0.95-0.37,1.89,0.09,2.83c0.1,0.21,0.11,0.46,0.17,0.69
			c-0.26,0.04-0.53,0.11-0.79,0.11c-0.14,0-0.28-0.14-0.43-0.21L58.69,72.63z"/>
		<path d="M58.71,72.61c-0.66-0.15-0.91-0.59-0.83-1.23c0.06-0.43,0.08-0.89,0.24-1.29c0.66-1.7,1.18-3.42,1.2-5.29
			c0.04,0.23,0.11,0.46,0.12,0.69c0.07,1.37-0.22,2.67-0.73,3.93c-0.21,0.51-0.38,1.05-0.48,1.59c-0.09,0.51-0.2,1.09,0.47,1.37
			c0.03,0.01,0,0.16,0,0.25C58.69,72.63,58.71,72.61,58.71,72.61z"/>
		<path d="M62.73,49.02c-0.05,0.37-0.01,0.76-0.15,1.09c-0.36,0.83-0.13,1.53,0.39,2.25c0.12-0.1,0.24-0.2,0.43-0.36
			c0.52,1.25,0.81,2.45,0.33,3.92c-0.08-1.22-0.14-2.24-0.22-3.44c-0.29,0.26-0.42,0.38-0.57,0.52c-0.22-0.43-0.41-0.82-0.62-1.2
			c-0.38-0.67-0.1-1.3,0.1-1.94C62.51,49.57,62.63,49.3,62.73,49.02C62.73,49.02,62.73,49.02,62.73,49.02z"/>
		<path d="M55.19,71.95c-0.95-0.4-1.47-1-1.4-1.77c0.12-1.38-0.05-2.66-0.68-3.9c0.79,0.82,1.13,1.85,1.07,2.93
			c-0.05,0.91,0.11,1.64,0.78,2.26C55.04,71.54,55.06,71.67,55.19,71.95z"/>
		<path d="M64.58,56.64c0.05-0.5,0.13-1.01,0.13-1.51c-0.01-0.88-0.05-1.76-0.11-2.64c-0.05-0.75-0.13-1.5-0.07-2.27
			c0.11,0.65,0.26,1.29,0.34,1.94c0.11,0.94,0.16,1.89,0.24,2.84c0.05,0.62,0.14,1.25-0.49,1.68
			C64.61,56.67,64.58,56.64,64.58,56.64z"/>
		<path d="M47.43,57.95c1.02-0.19,1.54-1.61,2.67-0.8c-0.63,0.21-1.31,0.44-1.98,0.67c0.05,0.05,0.1,0.11,0.15,0.16
			c-0.09,0.39-0.17,0.78-0.26,1.17c-0.09-0.01-0.17-0.01-0.26-0.02C48,58.66,48.17,58.22,47.43,57.95z"/>
		<path d="M63.51,50.69c-0.15-0.3-0.31-0.6-0.48-0.95c0.26,0,0.45,0,0.69,0c0,0.28,0,0.58,0,0.88
			C63.64,50.65,63.57,50.67,63.51,50.69z"/>
		<path class="st0" d="M55.94,62.48c-0.68-0.24-1.22-0.31-1.63-0.59c-1.17-0.79-2.12-1.81-2.57-3.19c-0.07-0.23-0.05-0.58,0.09-0.75
			c0.09-0.11,0.48-0.08,0.69,0.01c0.34,0.14,0.67,0.33,0.94,0.58c0.78,0.71,1.62,0.75,2.54,0.35c0.34-0.15,0.68-0.31,1.03-0.42
			c0.51-0.16,0.76,0.07,0.74,0.59c-0.01,0.18-0.04,0.37-0.11,0.54c-0.5,1.16-0.75,2.31,0.15,3.45
			C57.07,62.9,56.23,63.18,55.94,62.48z"/>
		<path class="st0" d="M61.08,58.94c0.32,0,0.64,0,1.03,0c0.18,1.89-1.05,3.44-1.02,5.25c-0.07,0-0.14,0-0.21,0
			c-0.41-0.86-0.83-1.73-1.24-2.6C60.92,61.04,61.19,60.54,61.08,58.94z"/>
	</g>
</g>
</svg>
