<?xml version="1.0" encoding="utf-8"?>
<!-- Generator: Adobe Illustrator 28.0.0, SVG Export Plug-In . SVG Version: 6.00 Build 0)  -->
<svg version="1.1" id="Layer_1" xmlns="http://www.w3.org/2000/svg" xmlns:xlink="http://www.w3.org/1999/xlink" x="0px" y="0px"
	 viewBox="0 0 111.76 135.51" style="enable-background:new 0 0 111.76 135.51;" xml:space="preserve">
<style type="text/css">
	.st0{fill:#FFFFFF;}
</style>
<g>
	<g>
		<path class="st0" d="M111.76,135.51c-37.25,0-74.51,0-111.76,0C0,90.34,0,45.17,0,0c37.25,0,74.51,0,111.76,0
			C111.76,45.17,111.76,90.34,111.76,135.51z M52.56,54.34c-0.18-0.77-1.33-1.36-2.28-1.16c-0.57,0.12-0.94,0.47-1.09,1.04
			c-0.2,0.79,0.46,2.02,1.39,2.41c-0.33-0.48-0.63-0.85-0.85-1.26c-0.27-0.49-0.39-1.03,0.01-1.5c0.4-0.48,0.97-0.54,1.52-0.3
			c0.46,0.2,0.88,0.49,1.32,0.74c0.51,0.17,1.02,0.46,1.54,0.5c1.06,0.08,2.14,0,3.21,0.03c1.29,0.03,2.47-0.24,3.61-0.86
			c0.45-0.25,1.01-0.39,1.52-0.39c1.09,0.01,1.6,0.91,1.17,1.91c-0.1,0.23-0.18,0.46-0.33,0.84c1.21-0.81,1.12-2.3,0-2.89
			c-0.86-0.46-1.74-0.34-2.53,0.12c-1.18,0.68-2.44,0.86-3.75,0.84C55.52,54.39,54.04,54.37,52.56,54.34z M56.6,69.19
			c0.19,0.38,0.29,0.82,0.44,0.83c0.64,0.07,1.3,0.06,1.94-0.01c0.15-0.02,0.26-0.37,0.41-0.54c0.06-0.07,0.2-0.11,0.3-0.11
			c0.39-0.01,0.79-0.01,1.18,0.01c0.12,0.01,0.24,0.08,0.35,0.14c0.27,0.15,0.52,0.41,0.81,0.44c0.69,0.08,1.39,0.1,2.08,0.07
			c0.29-0.01,0.6-0.19,0.84-0.37c0.26-0.19,0.41-0.52,0.68-0.69c1.31-0.87,2.3-1.99,2.58-3.56c0.3-1.69-0.48-3.05-1.63-4.17
			c-0.98-0.96-1.75-2-2.3-3.27c-0.73-1.69-2.34-2.32-3.94-2.89c0.41,0.33,0.88,0.58,1.34,0.83c0.93,0.5,1.86,1.06,2.27,2.08
			c0.55,1.39,1.5,2.46,2.44,3.59c2.25,2.68,2.1,5.07-0.72,7.05c-0.42,0.29-1.02,0.43-1.55,0.45c-1.72,0.06-3.44,0.03-5.16,0.04
			c-0.23,0-0.45,0.04-0.68,0.06c0.01,0.05,0.01,0.09,0.02,0.14c0.24,0.05,0.48,0.09,0.72,0.14c0.01,0.07,0.01,0.15,0.02,0.22
			c-0.61,0.25-1.27,0.1-1.9,0.13c-0.05-0.06-0.1-0.11-0.15-0.17c0.19-0.25,0.39-0.49,0.64-0.81c-0.54,0.03-1.04,0.05-1.54,0.07
			c-0.83,0.04-1.67,0.11-2.5,0.11c-2.38,0.02-3.94-1.18-4.82-3.33c-0.26-0.64-0.44-1.32-0.64-1.98c-0.1-0.32-0.17-0.64-0.25-0.96
			c0.01,1.7,0.48,3.25,1.46,4.63c0.73,1.01,1.71,1.67,2.93,1.84c0.98,0.13,1.99,0.09,2.98,0.1C55.73,69.28,56.22,69.22,56.6,69.19z
			 M47.33,77.17c-0.89,0-1.72,0.03-2.55-0.02c-0.17-0.01-0.44-0.32-0.45-0.51c-0.07-1.23-0.02-2.47-0.13-3.69
			c-0.08-0.91-0.2-1.86-0.51-2.71c-1.22-3.31-0.61-5.14,2.49-6.82c1.09-0.59,1.76-1.38,1.98-2.6c0.26-1.4,0.87-2.64,1.9-3.65
			c0.05-0.05,0.08-0.14,0.11-0.21c-0.34,0.12-0.59,0.31-0.79,0.54c-0.79,0.89-1.32,1.93-1.52,3.09c-0.21,1.19-0.84,1.98-1.91,2.47
			c-0.25,0.12-0.49,0.27-0.72,0.42c-2.38,1.5-3.13,3.61-2.11,6.23c0.54,1.39,0.79,2.8,0.79,4.28c0,0.98,0.06,1.95,0.06,2.93
			c0,0.39,0.08,0.57,0.55,0.56c1.27-0.01,2.55,0.08,3.82,0.09c0.4,0,0.8-0.11,1.25-0.17c-0.51-0.69-0.4-2.65,0.12-3.21
			c0.36-0.39,0.91-0.34,1.16,0.13c0.12,0.22,0.18,0.48,0.22,0.73c0.08,0.64,0.13,1.28,0.19,1.91c0.07-0.01,0.15-0.01,0.22-0.02
			c-0.05-0.7-0.07-1.4-0.17-2.1c-0.1-0.75-0.53-1.17-1.08-1.16c-0.73,0.02-1.01,0.56-1.11,1.14c-0.12,0.74-0.12,1.5-0.18,2.32
			c-0.35,0-0.81,0-1.49,0c0.48-0.54,0.85-0.95,1.2-1.34C47.89,75.66,47.49,76.05,47.33,77.17z M60.28,69.53
			c-0.08,0-0.16,0.01-0.24,0.01c0,0.24-0.04,0.48,0.01,0.71c0.16,0.68-0.03,1.25-0.57,1.67c-0.58,0.45-1.18,0.9-1.82,1.26
			c-0.8,0.45-1.28,1.03-1.27,1.99c0,0.2-0.15,0.48-0.32,0.58c-0.62,0.35-1.08,0.77-0.92,1.61c-1.25-0.06-2.44-0.11-3.62-0.16
			c-0.01,0.09-0.02,0.18-0.03,0.27c0.57,0.09,1.14,0.24,1.71,0.25c1.74,0.04,3.49,0.02,5.23,0.02c1.33,0,1.86-0.47,1.94-1.82
			c0.08-1.37,0.13-2.74,0.13-4.11C60.52,71.05,60.37,70.29,60.28,69.53z M65.47,63.37c-0.43-0.38-0.67-0.77-0.95-0.81
			c-0.46-0.05-0.73,0.33-0.75,0.81c-0.02,0.48,0.23,0.81,0.69,0.72C64.76,64.03,65.01,63.71,65.47,63.37z M58.3,64.22
			c0.09-0.1,0.41-0.29,0.4-0.49c0-0.44-0.2-0.91-0.74-0.91c-0.17,0-0.45,0.37-0.47,0.58C57.48,63.77,57.54,64.22,58.3,64.22z
			 M56.68,58.65c-0.3,0.43-0.68,0.85-0.26,1.39c0.06,0.08,0.57-0.06,0.73-0.24C57.48,59.45,57.27,58.98,56.68,58.65z M62.63,59.28
			c-0.33-0.3-0.53-0.47-0.72-0.64c-0.17,0.25-0.44,0.49-0.48,0.76c-0.03,0.18,0.27,0.41,0.42,0.62
			C62.07,59.81,62.29,59.6,62.63,59.28z"/>
		<path d="M56.6,69.19c-0.38,0.03-0.87,0.09-1.35,0.08c-1-0.01-2,0.04-2.98-0.1c-1.22-0.17-2.21-0.83-2.93-1.84
			c-0.99-1.37-1.45-2.93-1.46-4.63c0.08,0.32,0.15,0.65,0.25,0.96c0.2,0.66,0.38,1.34,0.64,1.98c0.88,2.15,2.44,3.35,4.82,3.33
			c0.83-0.01,1.67-0.07,2.5-0.11c0.5-0.02,1-0.05,1.54-0.07c-0.25,0.32-0.44,0.56-0.64,0.81c0.05,0.06,0.1,0.11,0.15,0.17
			c0.64-0.03,1.3,0.12,1.9-0.13c-0.01-0.07-0.01-0.15-0.02-0.22c-0.24-0.05-0.48-0.09-0.72-0.14c-0.01-0.05-0.01-0.09-0.02-0.14
			c0.23-0.02,0.45-0.05,0.68-0.06c1.72-0.01,3.44,0.02,5.16-0.04c0.53-0.02,1.13-0.15,1.55-0.45c2.82-1.98,2.97-4.37,0.72-7.05
			c-0.95-1.13-1.89-2.19-2.44-3.59c-0.41-1.02-1.33-1.58-2.27-2.08c-0.46-0.25-0.92-0.5-1.34-0.83c1.6,0.57,3.21,1.2,3.94,2.89
			c0.55,1.27,1.32,2.31,2.3,3.27c1.15,1.12,1.94,2.48,1.63,4.17c-0.28,1.58-1.27,2.69-2.58,3.56c-0.26,0.17-0.42,0.5-0.68,0.69
			c-0.25,0.18-0.56,0.36-0.84,0.37c-0.69,0.04-1.39,0.02-2.08-0.07c-0.28-0.03-0.53-0.29-0.81-0.44c-0.11-0.06-0.23-0.13-0.35-0.14
			c-0.39-0.02-0.79-0.02-1.18-0.01c-0.1,0-0.24,0.04-0.3,0.11c-0.15,0.17-0.26,0.52-0.41,0.54c-0.64,0.07-1.3,0.08-1.94,0.01
			C56.89,70.01,56.79,69.57,56.6,69.19z M61.56,69.41c0,0.07-0.01,0.14-0.01,0.21c1.01,0.14,2.01,0.09,3.01,0.01
			c0-0.07,0-0.15-0.01-0.22C63.56,69.41,62.56,69.41,61.56,69.41z"/>
		<path d="M47.33,77.17c0.16-1.12,0.55-1.51,1.33-1.37c-0.35,0.39-0.72,0.8-1.2,1.34c0.69,0,1.14,0,1.49,0
			c0.06-0.82,0.06-1.58,0.18-2.32c0.1-0.58,0.38-1.12,1.11-1.14c0.55-0.02,0.97,0.4,1.08,1.16c0.1,0.69,0.11,1.4,0.17,2.1
			c-0.07,0.01-0.15,0.01-0.22,0.02c-0.06-0.64-0.11-1.28-0.19-1.91c-0.03-0.25-0.1-0.51-0.22-0.73c-0.25-0.47-0.8-0.52-1.16-0.13
			c-0.52,0.56-0.63,2.51-0.12,3.21c-0.45,0.07-0.85,0.18-1.25,0.17c-1.27-0.01-2.55-0.09-3.82-0.09c-0.46,0-0.54-0.17-0.55-0.56
			c-0.01-0.98-0.07-1.95-0.06-2.93c0-1.48-0.25-2.89-0.79-4.28c-1.02-2.62-0.27-4.73,2.11-6.23c0.24-0.15,0.47-0.3,0.72-0.42
			c1.07-0.49,1.71-1.28,1.91-2.47c0.21-1.16,0.73-2.2,1.52-3.09c0.21-0.23,0.46-0.42,0.79-0.54c-0.04,0.07-0.06,0.15-0.11,0.21
			c-1.03,1.01-1.64,2.25-1.9,3.65c-0.22,1.22-0.9,2.01-1.98,2.6c-3.1,1.68-3.71,3.51-2.49,6.82c0.31,0.85,0.44,1.8,0.51,2.71
			c0.1,1.23,0.06,2.46,0.13,3.69c0.01,0.18,0.29,0.5,0.45,0.51C45.61,77.2,46.45,77.17,47.33,77.17z"/>
		<path d="M60.28,69.53c0.09,0.76,0.24,1.52,0.24,2.28c0.01,1.37-0.04,2.74-0.13,4.11c-0.08,1.35-0.61,1.82-1.94,1.82
			c-1.74,0-3.49,0.02-5.23-0.02c-0.57-0.01-1.14-0.17-1.71-0.25c0.01-0.09,0.02-0.18,0.03-0.27c1.18,0.05,2.36,0.1,3.62,0.16
			c-0.16-0.84,0.3-1.26,0.92-1.61c0.17-0.09,0.32-0.38,0.32-0.58c0-0.95,0.48-1.54,1.27-1.99c0.64-0.36,1.24-0.81,1.82-1.26
			c0.53-0.42,0.72-0.99,0.57-1.67c-0.05-0.22-0.01-0.47-0.01-0.71C60.12,69.53,60.2,69.53,60.28,69.53z M58.08,76.98
			c0.06,0.07,0.11,0.15,0.17,0.22c1.22,0.14,1.59-0.11,1.7-1.31c0.08-0.83,0.07-1.67,0.09-2.5c0.01-0.44,0-0.88,0-1.26
			c-0.75,0.47-1.44,0.97-2.2,1.35c-0.82,0.41-1.05,1.03-1.01,1.87c0.03,0.63,0.01,1.27,0.01,1.94c0.4-0.01,0.96,0.14,1.19-0.72
			c0.19-0.72,1.09-1.02,1.47-0.81C59.06,76.13,58.57,76.55,58.08,76.98z M55.2,77.19c1.03,0.11,1.36-0.36,1.04-1.4
			C55.87,76.29,55.57,76.7,55.2,77.19z"/>
		<path d="M52.56,54.34c1.48,0.02,2.96,0.05,4.44,0.07c1.32,0.02,2.58-0.17,3.75-0.84c0.8-0.46,1.67-0.58,2.53-0.12
			c1.13,0.6,1.22,2.08,0,2.89c0.15-0.38,0.23-0.61,0.33-0.84c0.43-0.99-0.08-1.89-1.17-1.91c-0.51-0.01-1.07,0.14-1.52,0.39
			c-1.14,0.63-2.32,0.9-3.61,0.86c-1.07-0.03-2.14,0.05-3.21-0.03c-0.52-0.04-1.03-0.32-1.54-0.5L52.56,54.34z"/>
		<path d="M52.57,54.32c-0.44-0.25-0.86-0.54-1.32-0.74c-0.55-0.24-1.12-0.19-1.52,0.3c-0.39,0.47-0.27,1.02-0.01,1.5
			c0.22,0.41,0.52,0.78,0.85,1.26c-0.93-0.4-1.59-1.63-1.39-2.41c0.15-0.58,0.52-0.92,1.09-1.04c0.95-0.21,2.1,0.39,2.28,1.16
			C52.56,54.34,52.57,54.32,52.57,54.32z"/>
		<path d="M65.47,63.37c-0.46,0.34-0.71,0.66-1.01,0.72c-0.46,0.09-0.71-0.24-0.69-0.72c0.02-0.48,0.29-0.86,0.75-0.81
			C64.8,62.6,65.04,62.99,65.47,63.37z"/>
		<path d="M58.3,64.22c-0.77,0.01-0.82-0.45-0.8-0.82c0.01-0.21,0.3-0.58,0.47-0.58c0.54,0,0.73,0.46,0.74,0.91
			C58.71,63.92,58.39,64.12,58.3,64.22z"/>
		<path d="M56.68,58.65c0.59,0.33,0.8,0.8,0.47,1.15c-0.16,0.17-0.67,0.31-0.73,0.24C56,59.51,56.39,59.08,56.68,58.65z"/>
		<path d="M62.63,59.28c-0.34,0.32-0.56,0.53-0.78,0.74c-0.15-0.21-0.45-0.44-0.42-0.62c0.04-0.27,0.31-0.51,0.48-0.76
			C62.1,58.81,62.3,58.99,62.63,59.28z"/>
		<path class="st0" d="M61.56,69.41c1,0,2,0,2.99,0c0,0.07,0,0.15,0.01,0.22c-1,0.09-2,0.13-3.01-0.01
			C61.56,69.55,61.56,69.48,61.56,69.41z"/>
		<path class="st0" d="M58.08,76.98c0.49-0.42,0.97-0.84,1.41-1.22c-0.38-0.21-1.28,0.1-1.47,0.81c-0.23,0.86-0.79,0.71-1.19,0.72
			c0-0.67,0.02-1.31-0.01-1.94c-0.04-0.84,0.19-1.46,1.01-1.87c0.76-0.38,1.45-0.89,2.2-1.35c0,0.38,0.01,0.82,0,1.26
			c-0.02,0.83,0,1.67-0.09,2.5c-0.12,1.19-0.48,1.45-1.7,1.31C58.2,77.12,58.14,77.05,58.08,76.98z"/>
		<path class="st0" d="M55.2,77.19c0.36-0.49,0.67-0.9,1.04-1.4C56.57,76.83,56.23,77.3,55.2,77.19z"/>
	</g>
</g>
</svg>
