<?xml version="1.0" encoding="utf-8"?>
<!-- Generator: Adobe Illustrator 28.0.0, SVG Export Plug-In . SVG Version: 6.00 Build 0)  -->
<svg version="1.1" id="Layer_1" xmlns="http://www.w3.org/2000/svg" xmlns:xlink="http://www.w3.org/1999/xlink" x="0px" y="0px"
	 viewBox="0 0 111.76 135.51" style="enable-background:new 0 0 111.76 135.51;" xml:space="preserve">
<style type="text/css">
	.st0{fill:#FFFFFF;}
</style>
<g>
	<g>
		<path class="st0" d="M111.76,135.51c-37.25,0-74.51,0-111.76,0C0,90.34,0,45.17,0,0c37.25,0,74.51,0,111.76,0
			C111.76,45.17,111.76,90.34,111.76,135.51z M57.01,63.37c-1.09-0.28-2.17-0.59-3.26-0.82c-0.2-0.04-0.47,0.28-0.71,0.43
			c0.21,0.18,0.4,0.48,0.63,0.5c1.54,0.14,3.01,0.49,4.41,1.16c0.24,0.11,0.59-0.01,0.9-0.03C58.31,64.2,57.66,63.78,57.01,63.37z
			 M46.63,64.02c-0.07-0.66-0.45-1-1.29-0.75c-1.57,0.45-3.09,1.07-4.62,1.62c-0.06,0.02-0.09,0.11-0.21,0.28
			c1.07-0.44,1.99-0.88,2.95-1.2c0.93-0.31,1.88-0.73,2.93-0.17c-0.52,0.39-1.1,0.65-1.63,0.98c-1.02,0.62-2.04,1.26-3.02,1.95
			c-0.25,0.17-0.34,0.56-0.51,0.85c0.09,0.08,0.18,0.17,0.27,0.25c0.48-0.36,0.96-0.73,1.44-1.09c-0.04-0.06-0.08-0.12-0.12-0.19
			c-0.29,0.18-0.58,0.36-0.87,0.54c-0.04-0.05-0.07-0.1-0.11-0.15c0.59-0.42,1.15-0.89,1.77-1.25c0.99-0.59,2.03-1.11,3.04-1.66
			c0.25,0.1,0.49,0.2,0.75,0.31c-0.17,0.09-0.41,0.16-0.55,0.33c-0.21,0.24-0.34,0.55-0.5,0.83c0.32,0.13,0.65,0.39,0.96,0.37
			c0.98-0.06,1.74-0.91,1.8-1.9c0.02-0.42,0-0.84,0.07-1.25c0.1-0.52,0.54-0.75,0.99-0.67c0.37,0.06,0.84,0.26,1.03,0.55
			c0.31,0.48-0.29,0.62-0.55,0.87c-0.03,0.03-0.05,0.08-0.05,0.07c0.2,0.53,0.31,1.08,0.6,1.51c0.51,0.77,2.62,0.45,2.71-0.38
			c1.28-0.05,2.48,0.4,3.02,1.23c-0.64-0.21-1.24-0.51-1.86-0.77c-0.18-0.08-0.4-0.06-0.6-0.08c0,0.24-0.06,0.5,0.02,0.71
			c0.06,0.18,0.26,0.32,0.41,0.46c1.82,1.72,4.7,2.28,7.2-0.08c0.35-0.33,0.95-0.69,1.36-0.62c0.63,0.1,0.56,0.86,0.67,1.39
			c0.05,0.23,0.2,0.45,0.3,0.67c0.01,0.54,0.36,0.38,0.63,0.28c0.75-0.3,1.23-0.9,1.33-1.67c0.14-1.15,0.15-2.31,0.2-3.47
			c0.01-0.32-0.04-0.64-0.06-0.96c0.51,0.69,0.85,1.4,1.21,2.1c0.58,1.12,0.57,2.2-0.02,3.33c-0.47,0.9-0.8,1.88-1.24,2.8
			c-0.35,0.73-0.73,1.44-1.16,2.12c-0.22,0.35-0.26,0.56,0.12,0.79c0.28,0.16,0.55,0.36,0.78,0.58c0.71,0.7,0.6,1.08-0.32,1.43
			c-1.35,0.5-2.71,0.98-4.02,1.57c-1.26,0.57-2.54,0.94-3.91,0.86c-2.08-0.12-4.15-0.34-6.23-0.51c-0.18-0.01-0.36,0.04-0.53,0.07
			c-1.64,0.29-2.77-0.43-3.19-2.03c-0.05-0.2-0.11-0.41-0.13-0.61c-0.11-0.88-0.58-1.5-1.34-1.92c-1.35-0.76-2.26-1.9-2.88-3.3
			c-0.25-0.57-0.5-1.15-0.82-1.9c0,0.29-0.02,0.39,0,0.47c0.61,1.91,1.42,3.7,3.24,4.78c0.86,0.51,1.4,1.18,1.5,2.2
			c0.03,0.29,0.15,0.59,0.26,0.86c0.48,1.18,1.49,1.97,2.6,1.84c0.77-0.09,1.46-0.02,2.2,0.16c0.85,0.2,1.75,0.2,2.63,0.29
			c1.79,0.19,3.6,0.36,5.32-0.22c1.98-0.66,3.91-1.47,5.84-2.26c0.84-0.34,0.99-1.01,0.45-1.75c-0.3-0.41-0.66-0.77-1.01-1.16
			c0.18-0.29,0.45-0.64,0.63-1.04c0.67-1.48,1.34-2.96,1.94-4.47c0.2-0.52,0.33-1.16,0.23-1.69c-0.35-1.79-1.32-3.3-2.29-4.81
			c-0.04-0.06-0.09-0.13-0.15-0.14c-0.19-0.05-0.38-0.07-0.57-0.1c-0.01,0.17-0.07,0.36-0.02,0.51c0.59,1.62,0.53,3.28,0.36,4.96
			c-0.1,0.96-0.53,1.67-1.48,2c0-0.32,0.03-0.65-0.02-0.97c-0.09-0.63-0.22-1.27-0.91-1.53c-0.68-0.25-1.14,0.21-1.62,0.57
			c-0.52,0.39-1,0.83-1.56,1.17c-1.81,1.1-4.46,0.37-5.56-1.31c0.85,0.34,1.61,1.03,2.6,0.5c-0.54-1.17-2.79-2.11-3.91-1.66
			c-0.14,0.06-0.3,0.16-0.37,0.29c-0.32,0.55-0.87,0.77-1.42,0.53c-0.67-0.28-0.81-1.09-0.36-1.66c0.2-0.25,0.32-0.69,0.25-0.99
			c-0.15-0.66-1.06-1.04-1.84-0.87c-0.78,0.17-1.16,0.72-1.09,1.53c0.03,0.43,0.05,0.89-0.07,1.3c-0.25,0.87-1.21,1.29-2.1,0.85
			c0.37-0.23,0.68-0.39,0.95-0.6c0.18-0.13,0.3-0.33,0.45-0.5c-0.22-0.08-0.43-0.21-0.66-0.23C47.09,63.9,46.86,63.98,46.63,64.02z
			 M46.46,66.62c-0.27,0.72-0.13,1.39,0.28,1.88c0.7,0.85,1.5,1.63,2.34,2.35c0.63,0.54,1.42,0.89,2.06,1.42
			c1.05,0.86,1.16,2.43,0.31,3.48c0.78,0.29,1.57,0.55,2.33,0.87c1.65,0.71,3.14,0.44,4.47-0.72c0.87-0.77,1.71-1.58,2.51-2.42
			c0.82-0.86,1.7-1.45,2.95-1.51c1.13-0.06,1.39-0.6,0.95-1.65c-0.26-0.61-0.49-1.23-0.74-1.84c-0.02-0.01-0.05-0.01-0.07-0.02
			c0.08,0.51,0.16,1.03,0.24,1.53c-0.23-0.19-0.47-0.41-0.74-0.59c-1.3-0.88-2.72-1.39-4.28-0.97c-0.76,0.2-1.47,0.67-2.17,1.07
			c-0.62,0.36-1.14,0.37-1.7-0.13c-0.31-0.28-0.74-0.49-1.15-0.6c-0.55-0.15-0.84-0.42-0.88-0.99c-0.07-0.84-0.53-1.39-1.3-1.75
			c-0.55-0.25-1.06-0.61-1.61-0.93C48.68,66.45,47.61,66.9,46.46,66.62z M41.88,62.8c0.53-0.12,0.87-0.15,1.17-0.28
			c0.87-0.37,1.35-1.1,1.65-1.96c0.71-2,2.13-3.09,4.24-3.29c1.41-0.13,2.8-0.19,3.92,0.93c0.08,0.08,0.23,0.07,0.48,0.15
			c-0.38-0.84-1-1.24-1.69-1.36c-0.88-0.15-1.8-0.21-2.69-0.14c-2.14,0.17-3.73,1.17-4.45,3.31c-0.13,0.37-0.31,0.72-0.49,1.07
			c-0.35,0.67-0.91,1.03-1.77,1.08c0.04-0.72,0.07-1.4,0.11-2.09c-0.03,0-0.06-0.01-0.1-0.01C42.14,60.99,42.02,61.78,41.88,62.8z
			 M53.55,57.7c0.25-0.64-0.03-1.07-0.56-1.33c-0.37-0.18-0.79-0.27-1.19-0.35c-3.06-0.6-5.99-0.15-8.8,1.15
			c-0.26,0.12-0.56,0.3-0.7,0.53c-0.12,0.22-0.12,0.58-0.03,0.83c0.08,0.21,0.37,0.34,0.7,0.61c-0.03-0.32-0.01-0.4-0.04-0.45
			c-0.44-0.74-0.41-0.88,0.37-1.17c1.02-0.38,2.04-0.75,3.09-1.07c1.84-0.55,3.69-0.08,5.53-0.01C52.74,56.47,53.36,56.8,53.55,57.7
			z M39.92,65.31c0.44-0.38,0.69-0.74,1.02-0.87c1.48-0.57,2.98-1.13,4.5-1.59c0.46-0.14,1.03,0.07,1.63,0.14
			c-0.09-0.12-0.2-0.36-0.38-0.45c-0.22-0.1-0.5-0.1-0.75-0.07c-1.87,0.19-3.59,0.88-5.25,1.7c-0.22,0.11-0.45,0.27-0.6,0.46
			C39.98,64.79,39.98,65.03,39.92,65.31z M46.87,60.2c-0.12,0.4-0.22,0.75-0.34,1.08c0,0.01-0.34-0.07-0.34-0.1
			c0.02-0.34,0.07-0.67,0.12-1.01c-0.23,0.2-0.49,0.48-0.5,0.78c-0.01,0.21,0.29,0.54,0.51,0.61c0.17,0.06,0.54-0.13,0.67-0.31
			C47.25,60.88,47.16,60.49,46.87,60.2z M52.95,60.27c-0.04,0.03-0.09,0.06-0.13,0.09c0,0.25,0,0.49,0,0.74
			c-0.15-0.01-0.44,0-0.44-0.02c-0.03-0.31-0.02-0.62-0.02-0.94c-0.22,0.24-0.44,0.58-0.37,0.85c0.05,0.21,0.46,0.43,0.73,0.44
			c0.18,0.01,0.48-0.29,0.53-0.5C53.28,60.75,53.05,60.49,52.95,60.27z"/>
		<path d="M64.55,67.52c0.95-0.33,1.38-1.03,1.48-2c0.17-1.68,0.23-3.34-0.36-4.96c-0.05-0.15,0.01-0.34,0.02-0.51
			c0.19,0.03,0.38,0.06,0.57,0.1c0.06,0.01,0.11,0.08,0.15,0.14c0.98,1.5,1.95,3.02,2.29,4.81c0.1,0.53-0.03,1.17-0.23,1.69
			c-0.59,1.51-1.27,2.99-1.94,4.47c-0.18,0.4-0.45,0.75-0.63,1.04c0.35,0.4,0.71,0.76,1.01,1.16c0.54,0.74,0.4,1.4-0.45,1.75
			c-1.93,0.79-3.86,1.6-5.84,2.26c-1.73,0.58-3.54,0.41-5.32,0.22c-0.88-0.09-1.78-0.09-2.63-0.29c-0.74-0.17-1.43-0.25-2.2-0.16
			c-1.11,0.13-2.12-0.67-2.6-1.84c-0.11-0.28-0.23-0.57-0.26-0.86c-0.09-1.02-0.64-1.69-1.5-2.2c-1.82-1.08-2.63-2.87-3.24-4.78
			c-0.03-0.08,0-0.18,0-0.47c0.32,0.75,0.57,1.33,0.82,1.9c0.61,1.4,1.53,2.54,2.88,3.3c0.76,0.42,1.23,1.04,1.34,1.92
			c0.03,0.21,0.08,0.41,0.13,0.61c0.43,1.61,1.55,2.32,3.19,2.03c0.18-0.03,0.36-0.08,0.53-0.07c2.08,0.17,4.15,0.39,6.23,0.51
			c1.36,0.08,2.65-0.29,3.91-0.86c1.31-0.59,2.67-1.07,4.02-1.57c0.93-0.34,1.03-0.72,0.32-1.43c-0.23-0.23-0.5-0.42-0.78-0.58
			c-0.39-0.23-0.34-0.44-0.12-0.79c0.42-0.68,0.81-1.39,1.16-2.12c0.44-0.92,0.77-1.89,1.24-2.8c0.58-1.13,0.59-2.21,0.02-3.33
			c-0.36-0.7-0.7-1.41-1.21-2.1c0.02,0.32,0.07,0.64,0.06,0.96c-0.05,1.16-0.06,2.32-0.2,3.47c-0.1,0.77-0.58,1.37-1.33,1.67
			c-0.27,0.11-0.62,0.27-0.63-0.28C64.47,67.55,64.51,67.53,64.55,67.52z"/>
		<path d="M46.46,66.62c1.16,0.29,2.22-0.16,3.79-1.52c0.55,0.32,1.05,0.68,1.61,0.93c0.77,0.36,1.23,0.91,1.3,1.75
			c0.04,0.57,0.33,0.84,0.88,0.99c0.41,0.11,0.84,0.32,1.15,0.6c0.57,0.5,1.08,0.5,1.7,0.13c0.7-0.4,1.4-0.87,2.17-1.07
			c1.56-0.42,2.98,0.09,4.28,0.97c0.27,0.18,0.51,0.4,0.74,0.59c-0.08-0.5-0.16-1.01-0.24-1.53c0.02,0.01,0.05,0.01,0.07,0.02
			c0.25,0.61,0.48,1.23,0.74,1.84c0.44,1.05,0.19,1.6-0.95,1.65c-1.24,0.06-2.13,0.65-2.95,1.51c-0.8,0.84-1.64,1.65-2.51,2.42
			c-1.32,1.16-2.81,1.44-4.47,0.72c-0.76-0.33-1.54-0.58-2.33-0.87c0.86-1.05,0.74-2.62-0.31-3.48c-0.64-0.53-1.43-0.88-2.06-1.42
			c-0.84-0.72-1.63-1.5-2.34-2.35C46.33,68.01,46.18,67.34,46.46,66.62z M51.94,75.4c0.53,0.24,1.07,0.45,1.58,0.71
			c1.72,0.9,3.28,0.65,4.69-0.63c0.86-0.78,1.69-1.59,2.51-2.42c0.76-0.77,1.6-1.34,2.73-1.36c0.27,0,0.57-0.06,0.81-0.18
			c0.15-0.08,0.25-0.31,0.31-0.49c0.02-0.05-0.2-0.18-0.31-0.27c-0.19-0.16-0.4-0.3-0.58-0.47c-1.03-0.95-2.23-1.48-3.64-1.52
			c-1.09-0.03-2.03,0.38-2.94,0.95c-0.6,0.38-1.21,0.53-1.88,0.06c-0.48-0.34-1.06-0.53-1.56-0.84c-0.29-0.18-0.7-0.47-0.72-0.73
			c-0.09-1.14-0.72-1.75-1.73-2.11c-0.33-0.12-0.62-0.37-0.83-0.49c-0.6,0.36-1.09,0.76-1.66,0.98c-0.57,0.22-1.2,0.26-1.85,0.39
			c-0.11,0.93,0.36,1.7,1.02,2.29c0.84,0.75,1.78,1.41,2.72,2.05C52.25,72.44,52.65,73.61,51.94,75.4z"/>
		<path d="M64.55,67.52c-0.04,0.02-0.08,0.03-0.11,0.04c-0.1-0.22-0.25-0.44-0.3-0.67c-0.12-0.54-0.04-1.29-0.67-1.39
			c-0.42-0.07-1.01,0.29-1.36,0.62c-2.49,2.36-5.37,1.8-7.2,0.08c-0.15-0.14-0.35-0.28-0.41-0.46c-0.07-0.22-0.02-0.47-0.02-0.71
			c0.2,0.03,0.42,0.01,0.6,0.08c0.62,0.26,1.22,0.56,1.86,0.77c-0.54-0.84-1.74-1.29-3.02-1.23c-0.09,0.83-2.21,1.15-2.71,0.38
			c-0.29-0.44-0.4-0.99-0.6-1.51c0,0,0.02-0.04,0.05-0.07c0.26-0.25,0.86-0.39,0.55-0.87c-0.19-0.29-0.66-0.49-1.03-0.55
			c-0.46-0.07-0.9,0.15-0.99,0.67c-0.07,0.41-0.05,0.83-0.07,1.25c-0.05,0.99-0.81,1.85-1.8,1.9c-0.31,0.02-0.64-0.24-0.96-0.37
			c0.16-0.28,0.29-0.59,0.5-0.83c0.14-0.16,0.38-0.23,0.55-0.33c-0.25-0.11-0.5-0.21-0.75-0.31c0,0-0.02,0.02-0.02,0.02
			c0.23-0.04,0.46-0.12,0.67-0.1c0.22,0.02,0.44,0.15,0.66,0.23c-0.15,0.17-0.27,0.37-0.45,0.5c-0.27,0.21-0.58,0.37-0.95,0.6
			c0.89,0.44,1.85,0.02,2.1-0.85c0.12-0.41,0.1-0.87,0.07-1.3c-0.06-0.8,0.31-1.36,1.09-1.53c0.78-0.17,1.69,0.21,1.84,0.87
			c0.07,0.3-0.05,0.74-0.25,0.99c-0.45,0.57-0.31,1.38,0.36,1.66c0.56,0.23,1.1,0.02,1.42-0.53c0.07-0.13,0.23-0.23,0.37-0.29
			c1.12-0.45,3.37,0.49,3.91,1.66c-0.98,0.53-1.74-0.16-2.6-0.5c1.1,1.68,3.75,2.41,5.56,1.31c0.55-0.33,1.04-0.78,1.56-1.17
			c0.48-0.36,0.94-0.82,1.62-0.57c0.7,0.26,0.82,0.9,0.91,1.53C64.58,66.86,64.55,67.19,64.55,67.52z"/>
		<path d="M41.88,62.8c0.15-1.02,0.26-1.81,0.37-2.6c0.03,0,0.06,0.01,0.1,0.01c-0.04,0.69-0.07,1.38-0.11,2.09
			c0.86-0.05,1.42-0.41,1.77-1.08c0.18-0.35,0.37-0.7,0.49-1.07c0.72-2.14,2.31-3.13,4.45-3.31c0.89-0.07,1.81-0.01,2.69,0.14
			c0.69,0.12,1.31,0.52,1.69,1.36c-0.25-0.07-0.4-0.07-0.48-0.15c-1.12-1.12-2.51-1.06-3.92-0.93c-2.11,0.2-3.53,1.29-4.24,3.29
			c-0.31,0.86-0.78,1.59-1.65,1.96C42.75,62.65,42.41,62.68,41.88,62.8z"/>
		<path d="M53.55,57.7c-0.19-0.9-0.81-1.23-1.64-1.26c-1.84-0.06-3.69-0.54-5.53,0.01c-1.04,0.31-2.07,0.69-3.09,1.07
			c-0.78,0.29-0.81,0.43-0.37,1.17c0.03,0.05,0.01,0.13,0.04,0.45c-0.33-0.28-0.62-0.4-0.7-0.61c-0.09-0.24-0.09-0.61,0.03-0.83
			c0.13-0.24,0.43-0.41,0.7-0.53c2.81-1.29,5.74-1.75,8.8-1.15c0.41,0.08,0.83,0.17,1.19,0.35C53.52,56.63,53.81,57.07,53.55,57.7z"
			/>
		<path d="M46.65,64c-1.02,0.55-2.05,1.08-3.04,1.66c-0.62,0.37-1.18,0.83-1.77,1.25c0.04,0.05,0.07,0.1,0.11,0.15
			c0.29-0.18,0.58-0.36,0.87-0.54c0.04,0.06,0.08,0.12,0.12,0.19c-0.48,0.36-0.96,0.73-1.44,1.09c-0.09-0.08-0.18-0.17-0.27-0.25
			c0.16-0.29,0.26-0.68,0.51-0.85c0.98-0.69,2-1.33,3.02-1.95c0.54-0.33,1.11-0.58,1.63-0.98c-1.05-0.56-2-0.14-2.93,0.17
			c-0.96,0.32-1.88,0.76-2.95,1.2c0.12-0.16,0.15-0.26,0.21-0.28c1.54-0.55,3.06-1.17,4.62-1.62c0.84-0.24,1.21,0.09,1.29,0.75
			C46.64,64.02,46.65,64,46.65,64z"/>
		<path class="st0" d="M57.01,63.37c0.65,0.42,1.3,0.83,1.96,1.25c-0.27-0.03-0.58,0.01-0.8-0.11c-1.39-0.74-2.88-1.12-4.44-1.26
			c-0.16-0.01-0.31-0.14-0.46-0.22c0.02-0.08,0.04-0.16,0.06-0.23c0.42,0.02,0.85,0.01,1.26,0.08
			C55.39,63.01,56.19,63.2,57.01,63.37z"/>
		<path d="M39.92,65.31c0.06-0.28,0.06-0.52,0.17-0.67c0.15-0.19,0.37-0.35,0.6-0.46c1.67-0.83,3.38-1.52,5.25-1.7
			c0.25-0.02,0.53-0.03,0.75,0.07c0.18,0.08,0.28,0.33,0.38,0.45c-0.61-0.06-1.17-0.27-1.63-0.14c-1.52,0.46-3.01,1.01-4.5,1.59
			C40.6,64.57,40.36,64.93,39.92,65.31z"/>
		<path d="M57.01,63.37c-0.81-0.17-1.62-0.35-2.44-0.49c-0.41-0.07-0.84-0.06-1.26-0.08c-0.02,0.08-0.04,0.16-0.06,0.23
			c0.15,0.07,0.3,0.2,0.46,0.22c1.56,0.13,3.05,0.52,4.44,1.26c0.22,0.12,0.53,0.08,0.8,0.11c-0.3,0.01-0.66,0.14-0.9,0.03
			c-1.4-0.66-2.87-1.02-4.41-1.16c-0.22-0.02-0.42-0.33-0.63-0.5c0.24-0.15,0.51-0.47,0.71-0.43
			C54.84,62.77,55.92,63.09,57.01,63.37z"/>
		<path d="M46.87,60.2c0.29,0.29,0.38,0.68,0.12,1.05c-0.13,0.18-0.49,0.37-0.67,0.31c-0.23-0.08-0.52-0.4-0.51-0.61
			c0.01-0.29,0.27-0.58,0.5-0.78c-0.04,0.34-0.1,0.67-0.12,1.01c0,0.03,0.34,0.11,0.34,0.1C46.65,60.94,46.75,60.6,46.87,60.2z"/>
		<path d="M52.95,60.27c0.11,0.22,0.33,0.47,0.29,0.66c-0.05,0.21-0.36,0.52-0.53,0.5c-0.26-0.02-0.67-0.24-0.73-0.44
			c-0.07-0.27,0.16-0.61,0.37-0.85c0,0.31-0.01,0.63,0.02,0.94c0,0.02,0.29,0.01,0.44,0.02c0-0.25,0-0.49,0-0.74
			C52.86,60.33,52.9,60.3,52.95,60.27z"/>
		<path class="st0" d="M51.94,75.4c0.71-1.79,0.31-2.97-1.34-4.08c-0.94-0.64-1.88-1.29-2.72-2.05c-0.66-0.59-1.13-1.36-1.02-2.29
			c0.65-0.13,1.29-0.17,1.85-0.39c0.57-0.22,1.07-0.62,1.66-0.98c0.21,0.13,0.49,0.37,0.83,0.49c1.01,0.36,1.64,0.96,1.73,2.11
			c0.02,0.27,0.43,0.55,0.72,0.73c0.5,0.32,1.08,0.5,1.56,0.84c0.67,0.47,1.27,0.32,1.88-0.06c0.9-0.57,1.84-0.98,2.94-0.95
			c1.41,0.04,2.62,0.56,3.64,1.52c0.18,0.17,0.39,0.32,0.58,0.47c0.11,0.09,0.33,0.22,0.31,0.27c-0.06,0.18-0.16,0.41-0.31,0.49
			c-0.24,0.12-0.54,0.18-0.81,0.18c-1.13,0.02-1.97,0.59-2.73,1.36c-0.82,0.83-1.65,1.63-2.51,2.42c-1.41,1.28-2.97,1.53-4.69,0.63
			C53.01,75.85,52.47,75.64,51.94,75.4z"/>
	</g>
</g>
</svg>
