<?xml version="1.0" encoding="utf-8"?>
<!-- Generator: Adobe Illustrator 28.0.0, SVG Export Plug-In . SVG Version: 6.00 Build 0)  -->
<svg version="1.1" id="Layer_1" xmlns="http://www.w3.org/2000/svg" xmlns:xlink="http://www.w3.org/1999/xlink" x="0px" y="0px"
	 viewBox="0 0 111.76 135.51" style="enable-background:new 0 0 111.76 135.51;" xml:space="preserve">
<style type="text/css">
	.st0{fill:#FFFFFF;}
</style>
<g>
	<g>
		<path class="st0" d="M111.76,135.51c-37.25,0-74.51,0-111.76,0C0,90.34,0,45.17,0,0c37.25,0,74.51,0,111.76,0
			C111.76,45.17,111.76,90.34,111.76,135.51z M65.74,59.74c0.1-0.05,0.2-0.14,0.3-0.15c1.16-0.09,1.92-0.77,2.28-1.79
			c0.36-0.99,0.64-2.05,0.71-3.1c0.13-1.82-0.65-2.53-2.45-2.18c-2.03,0.39-3.91,0.18-5.74-0.78c-0.85-0.44-1.77-0.53-2.71-0.29
			c-2.45,0.62-3.89,2.82-3.5,5.49c0.22,1.48,0.62,2.94,0.94,4.44c-1.92,0.9-3.72,0.48-5.23-1.08c-0.78-0.81-1.39-1.78-2.09-2.68
			c-0.08-0.1-0.19-0.25-0.28-0.24c-0.1,0.01-0.23,0.14-0.27,0.25c-0.08,0.19-0.12,0.4-0.14,0.6c-0.14,1.5,0.27,2.85,1.34,3.89
			c1.15,1.13,1.19,2.31,0.54,3.67c-0.4,0.84-0.79,1.68-1.12,2.55c-0.51,1.34-0.65,2.71-0.16,4.09c0.07,0.19,0.27,0.39,0.45,0.46
			c0.09,0.03,0.3-0.22,0.44-0.35c0.57-0.57,1.07-1.25,1.72-1.7c1.88-1.3,4.05-1.67,6.3-1.65c1.18,0.01,2.08,0.58,2.72,1.57
			c0.2,0.31,0.39,0.64,0.61,0.93c0.59,0.8,1.28,0.72,1.69-0.18c0.14-0.31,0.25-0.66,0.27-1c0.05-1.11,0.11-2.23,0.06-3.34
			c-0.05-1.23-0.22-2.45-0.33-3.68c-0.1-1.11,0.34-1.88,1.41-2.29c0.52-0.2,1.03-0.45,1.5-0.74c0.3-0.19,0.51-0.5,0.76-0.76
			L65.74,59.74z"/>
		<path d="M65.76,59.72c-0.25,0.26-0.47,0.57-0.76,0.76c-0.47,0.29-0.98,0.54-1.5,0.74c-1.07,0.41-1.51,1.18-1.41,2.29
			c0.11,1.23,0.27,2.45,0.33,3.68c0.05,1.11-0.01,2.23-0.06,3.34c-0.02,0.34-0.13,0.69-0.27,1c-0.4,0.91-1.1,0.98-1.69,0.18
			c-0.22-0.3-0.41-0.62-0.61-0.93c-0.63-0.99-1.54-1.56-2.72-1.57c-2.24-0.02-4.41,0.35-6.3,1.65c-0.65,0.45-1.15,1.13-1.72,1.7
			c-0.14,0.14-0.35,0.39-0.44,0.35c-0.19-0.07-0.38-0.27-0.45-0.46c-0.48-1.38-0.35-2.75,0.16-4.09c0.33-0.87,0.71-1.72,1.12-2.55
			c0.66-1.36,0.62-2.54-0.54-3.67c-1.07-1.04-1.49-2.39-1.34-3.89c0.02-0.21,0.06-0.42,0.14-0.6c0.04-0.11,0.17-0.25,0.27-0.25
			c0.09,0,0.2,0.14,0.28,0.24c0.69,0.9,1.3,1.87,2.09,2.68c1.51,1.55,3.31,1.98,5.23,1.08c-0.32-1.5-0.72-2.95-0.94-4.44
			c-0.4-2.67,1.05-4.87,3.5-5.49c0.94-0.24,1.87-0.15,2.71,0.29c1.83,0.95,3.71,1.17,5.74,0.78c1.8-0.35,2.58,0.37,2.45,2.18
			c-0.08,1.05-0.36,2.1-0.71,3.1c-0.36,1.01-1.13,1.69-2.28,1.79c-0.1,0.01-0.2,0.1-0.3,0.15c-0.41-0.19-0.85-0.35-1.23-0.59
			c-0.28-0.17-0.5-0.43-0.75-0.65c0.05-0.07,0.11-0.14,0.16-0.22c0.3,0.14,0.61,0.28,0.9,0.43c0.95,0.49,1.78,0.48,2.39-0.15
			c0.95-0.98,1.23-2.23,1.33-3.58c-1.31-0.09-2.14-0.73-2.53-1.92c-1.89,0.4-3.62-0.03-5.28-0.86c-2.51-1.25-5.28,0.69-5.54,3.08
			c-0.09,0.87-0.04,1.77,0.1,2.63c0.25,1.52,0.63,3.01,1.51,4.31c0.34,0.5,0.8,0.9,1.46,0.68c0.65-0.22,0.94-0.77,0.91-1.42
			c-0.02-0.57-0.09-1.16-0.24-1.71c-0.24-0.89-0.56-1.75-0.85-2.62c0.36,0.41,0.65,0.87,0.77,1.36c0.25,1.03,0.5,2.07,0.59,3.12
			c0.07,0.77-0.5,1.42-1.12,1.59c-0.76,0.2-1.37-0.07-1.85-0.66c-0.2-0.25-0.38-0.53-0.56-0.79c-1.28,0.73-2.6,0.83-3.95,0.29
			c-1.23-0.49-2.14-1.38-2.92-2.41c-0.3-0.39-0.59-0.79-0.89-1.19c-0.11,0.3-0.1,0.55-0.08,0.8c0.12,1.17,0.73,2.09,1.52,2.92
			c0.86,0.91,1.03,1.95,0.61,3.09c-0.19,0.52-0.43,1.03-0.64,1.54c-0.31,0.75-0.66,1.49-0.91,2.26c-0.33,1.02-0.35,2.06-0.01,3.21
			c1.53-2.08,3.6-2.97,5.93-3.41c2.6-0.5,4.9-0.3,6.22,2.45c0.09,0.18,0.39,0.44,0.49,0.4c0.2-0.08,0.43-0.32,0.46-0.53
			c0.13-0.75,0.28-1.52,0.25-2.27c-0.07-1.72-0.25-3.43-0.36-5.14c-0.06-0.9-0.08-1.87,0.79-2.39
			C63.47,60.72,64.63,60.26,65.76,59.72z M68.54,54.47c0.07-1.44-0.77-1.94-2.22-1.34C66.89,53.87,67.48,54.55,68.54,54.47z"/>
		<path class="st0" d="M65.76,59.72c-1.12,0.54-2.29,1.01-3.36,1.64c-0.86,0.52-0.85,1.49-0.79,2.39c0.12,1.72,0.3,3.43,0.36,5.14
			c0.03,0.75-0.12,1.52-0.25,2.27c-0.04,0.21-0.27,0.45-0.46,0.53c-0.1,0.04-0.4-0.22-0.49-0.4c-1.32-2.74-3.62-2.95-6.22-2.45
			c-2.33,0.45-4.4,1.33-5.93,3.41c-0.34-1.15-0.32-2.19,0.01-3.21c0.25-0.77,0.6-1.51,0.91-2.26c0.21-0.52,0.45-1.02,0.64-1.54
			c0.42-1.15,0.26-2.18-0.61-3.09c-0.78-0.82-1.39-1.75-1.52-2.92c-0.03-0.25-0.03-0.49,0.08-0.8c0.3,0.4,0.59,0.8,0.89,1.19
			c0.79,1.03,1.7,1.92,2.92,2.41c1.35,0.54,2.67,0.44,3.95-0.29c0.19,0.27,0.36,0.54,0.56,0.79c0.48,0.6,1.09,0.87,1.85,0.66
			c0.62-0.17,1.19-0.82,1.12-1.59c-0.09-1.05-0.34-2.09-0.59-3.12c-0.12-0.5-0.41-0.95-0.77-1.36c0.29,0.87,0.61,1.73,0.85,2.62
			c0.15,0.55,0.22,1.14,0.24,1.71c0.02,0.65-0.27,1.2-0.91,1.42c-0.66,0.23-1.12-0.17-1.46-0.68c-0.88-1.3-1.26-2.79-1.51-4.31
			c-0.14-0.86-0.2-1.77-0.1-2.63c0.26-2.39,3.03-4.33,5.54-3.08c1.67,0.83,3.39,1.26,5.28,0.86c0.4,1.2,1.23,1.83,2.53,1.92
			c-0.1,1.35-0.38,2.6-1.33,3.58c-0.6,0.63-1.43,0.64-2.39,0.15c-0.3-0.15-0.6-0.29-0.9-0.43c-0.05,0.07-0.11,0.14-0.16,0.22
			c0.25,0.22,0.47,0.48,0.75,0.65c0.39,0.23,0.82,0.39,1.23,0.59C65.74,59.74,65.76,59.72,65.76,59.72z M61.54,53.52
			c-0.32-0.28-0.52-0.44-0.72-0.61c-0.15,0.25-0.39,0.5-0.41,0.76c-0.02,0.17,0.27,0.37,0.42,0.56
			C61.04,54.03,61.23,53.83,61.54,53.52z"/>
		<path class="st0" d="M68.54,54.47c-1.06,0.08-1.65-0.6-2.22-1.34C67.77,52.52,68.61,53.03,68.54,54.47z"/>
		<path d="M61.54,53.52c-0.31,0.31-0.51,0.51-0.71,0.71c-0.15-0.19-0.44-0.39-0.42-0.56c0.03-0.27,0.27-0.51,0.41-0.76
			C61.02,53.08,61.22,53.24,61.54,53.52z"/>
	</g>
</g>
</svg>
