<?xml version="1.0" encoding="utf-8"?>
<!-- Generator: Adobe Illustrator 28.0.0, SVG Export Plug-In . SVG Version: 6.00 Build 0)  -->
<svg version="1.1" id="Layer_1" xmlns="http://www.w3.org/2000/svg" xmlns:xlink="http://www.w3.org/1999/xlink" x="0px" y="0px"
	 viewBox="0 0 111.76 135.51" style="enable-background:new 0 0 111.76 135.51;" xml:space="preserve">
<style type="text/css">
	.st0{fill:none;}
</style>
<g>
	<g>
		<path class="st0" d="M0,0c37.25,0,74.51,0,111.76,0c0,45.17,0,90.34,0,135.51c-37.25,0-74.51,0-111.76,0C0,90.34,0,45.17,0,0z
			 M46.46,53.57c-0.03-0.08-0.06-0.16-0.08-0.23c-0.51-0.67-0.48-0.96,0.2-1.44c0.48-0.34,0.61-1.17,1.54-0.96
			c0.3,0.07,0.74-0.47,1.09-0.71c-0.48,0.03-1.1-0.11-1.43,0.14c-0.74,0.55-1.35,1.29-2,1.96c-0.03,0.03-0.01,0.09-0.02,0.14
			c-0.11,0.41-0.2,0.84-0.34,1.24c-0.21,0.58,0.12,1.29,0.64,1.3c0.45,0.01,0.9,0,1.35-0.01c0.02,0,0.04-0.06,0.08-0.12
			c-0.17-0.08-0.33-0.16-0.53-0.25c0.53-0.41,0.93-0.5,1.2,0.17c0.05,0.13,0.16,0.23,0.24,0.34c-0.13,0.17-0.25,0.34-0.42,0.57
			c0.2,0,0.29,0.03,0.33,0c0.63-0.48,1.3-0.34,1.94-0.06c0.55,0.24,0.71,0.76,0.31,1.19c-0.67,0.72-1.43,1.37-2.22,2.11
			c0.49-0.9,0.92-1.68,1.34-2.44c0.08,0.06,0.29,0.21,0.65,0.47c-0.21-0.94-0.79-1.05-1.35-1.17c-0.06,0.06-0.12,0.13-0.18,0.19
			c0.2,0.06,0.41,0.11,0.63,0.17c-1.19,1.04-2,1.42-3.31,1.66c-0.91,0.17-1.83,0.32-2.72,0.57c-0.48,0.13-0.91,0.43-1.36,0.65
			c0.02,0.02,0.03,0.05,0.05,0.07c1.31-0.36,2.62-0.72,4.04-1.11c-0.41,1.12-0.74,2.04-1.1,2.93c-0.06,0.15-0.29,0.22-0.44,0.33
			c-0.04-0.03-0.08-0.05-0.12-0.08c0.16-0.49,0.31-0.97,0.47-1.46c-0.04-0.01-0.09-0.03-0.13-0.04c-0.2,0.6-0.39,1.2-0.65,1.98
			c0.53-0.22,0.89-0.35,1.24-0.51c1.85-0.83,3.38-2.12,4.82-3.51c0.36-0.35,0.75-0.84,0.79-1.3c0.03-0.39-0.42-0.82-0.66-1.26
			c0.41-0.34,0.69-1.25,0.36-1.63c-0.13-0.15-0.5-0.23-0.72-0.17c-0.92,0.26-0.99,0.43-0.84,1.7c-0.2,0.05-0.4,0.11-0.6,0.16
			c-0.18-1.1-0.43-1.26-1.53-1.06C46.81,53.88,46.63,53.73,46.46,53.57z M59.22,64.09c-1.51-0.84-3.02-1.69-4.53-2.53
			c-0.03,0.06-0.07,0.11-0.1,0.17c1.66,1.03,3.33,2.05,4.99,3.08c-0.02,0.03-0.03,0.05-0.05,0.08c-0.39-0.12-0.78-0.24-1.26-0.39
			c1.13,0.94,2.76,0.68,3.63,1.94c-1.35-0.26-2.71-0.53-4.06-0.79c-0.02,0.06-0.03,0.12-0.05,0.18c1.54,0.37,3.08,0.74,4.63,1.11
			c-0.02,0.09-0.03,0.19-0.05,0.28c-1.02-0.06-2.04-0.11-3.06-0.17c-0.01,0.06-0.01,0.13-0.02,0.19c0.95,0.1,1.9,0.18,2.85,0.29
			c0.39,0.05,0.77,0.17,1.21,0.27c-0.08-0.15-0.17-0.38-0.31-0.55c-0.26-0.32-0.54-0.62-0.84-0.9c-0.36-0.34-0.72-0.69-1.12-0.99
			c-0.49-0.37-1.01-0.69-1.51-1.03c-0.03-0.15-0.02-0.34-0.11-0.44c-0.6-0.67-1.26-1.3-1.84-1.98c-0.9-1.06-1.76-2.15-2.63-3.23
			c-0.2-0.24-0.39-0.49-0.58-0.74c0.1,0.5,0.29,0.99,0.58,1.39c0.44,0.6,1.01,1.1,1.41,1.72C57.18,62.24,58,63.34,59.22,64.09z
			 M45.73,68.91c0.02,0.03,0.05,0.05,0.07,0.08c2.09,0.75,4.21,1.23,6.46,0.65c-0.09-0.11-0.17-0.2-0.33-0.38
			c0.5-0.03,0.92-0.05,1.4-0.08c-0.47-0.71-1.16-0.19-1.67-0.42c0.75-1.43,0.99-1.37,2.91-0.23c-0.74,1.67-0.98,1.79-2.82,1.59
			c-0.38-0.04-0.81-0.02-1.16,0.12c-0.27,0.11-0.46,0.44-0.68,0.68c0.06,0.08,0.11,0.16,0.17,0.24c0.55-0.95,1.39-0.7,2.18-0.65
			c1.41,0.08,2.07-0.4,2.42-1.74c0.04-0.16,0.23-0.28,0.34-0.42c-0.1,0.66-0.34,1.18-0.55,1.72c-0.1,0.27-0.12,0.67,0.32,0.52
			c0.86-0.28,1.67-0.21,2.49,0.12c0.01-0.07,0.02-0.14,0.04-0.22c-0.82-0.16-1.64-0.31-2.48-0.47c0.22-0.61,0.47-1.27,0.74-2
			c-1.72,0.18-2.7-0.71-3.53-1.87c-0.05,0.04-0.1,0.07-0.15,0.11c0.16,0.38,0.33,0.76,0.5,1.17c-0.48,0.21-0.85,0.25-1.12-0.35
			c-0.15-0.32-0.48-0.56-0.72-0.84c-0.04,0.04-0.08,0.08-0.13,0.13c0.31,0.48,0.62,0.96,0.93,1.44c-0.8,0.7-1.65,0.89-2.62,0.57
			c-0.42-0.14-0.86-0.36-1.27-0.32c-0.59,0.05-1.17,0.3-1.75,0.48C45.7,68.54,45.73,68.78,45.73,68.91z M63.37,70.64
			c-0.05,0.06-0.1,0.13-0.15,0.19c-1.2-0.86-2.39-1.72-3.59-2.58c0.03-0.08,0.06-0.17,0.09-0.25c0.97,0,1.94,0,2.9,0
			c-0.21-0.18-0.42-0.24-0.63-0.21c-3.42,0.43-6.25-1.49-9.34-2.36c-0.17-0.05-0.33-0.17-0.48-0.27c-1.93-1.27-2.1-3.68-0.35-5.09
			c-0.66,0.02-1.22,0.47-1.44,1.25c-0.41,1.5-0.06,2.88,1.14,3.84c0.75,0.6,1.75,0.91,2.66,1.27c1.03,0.41,2.1,0.73,3.15,1.09
			c-0.02,0.07-0.04,0.13-0.07,0.2c-0.66-0.19-1.32-0.37-1.97-0.56c-0.03,0.08-0.05,0.15-0.08,0.23c0.5,0.19,0.99,0.44,1.51,0.55
			c1.43,0.29,2.83,0.57,3.94,1.68c0.5,0.5,1.16,0.85,1.79,1.2c0.33,0.19,0.85,0.44,1.1,0.31c0.52-0.27,0.89,0,1.33,0.08
			c0.17,0.03,0.37-0.08,0.56-0.13c-0.07-0.2-0.08-0.45-0.21-0.58c-0.73-0.75-1.49-1.47-2.24-2.19c-0.07-0.06-0.17-0.09-0.26-0.13
			c-0.05,0.06-0.09,0.11-0.14,0.17c0.75,0.79,1.5,1.58,2.26,2.37c-0.03,0.04-0.06,0.08-0.09,0.13c-1.22-0.84-2.45-1.68-3.67-2.52
			c-0.06,0.07-0.12,0.15-0.18,0.22C61.73,69.24,62.55,69.94,63.37,70.64z M50.65,50.94c-0.03,0.06-0.07,0.13-0.1,0.19
			c0.17,0.22,0.33,0.47,0.53,0.67c0.34,0.33,0.8,0.44,1.03,1.01c0.47,1.15,1.18,2.19,1.79,3.28c0.07-0.04,0.14-0.08,0.21-0.11
			c-0.42-0.81-0.84-1.62-1.27-2.43c-0.12-0.23-0.39-0.52-0.32-0.67c0.26-0.58-0.18-0.73-0.5-0.97c-0.26-0.19-0.53-0.37-0.84-0.58
			c0.32-0.3,0.33-0.62-0.1-0.71c-0.52-0.12-1.06-0.13-1.59-0.18c-0.01,0.08-0.02,0.17-0.03,0.25
			C49.85,50.76,50.25,50.85,50.65,50.94z M41.66,59.5c0.52-2.29,2.2-3.43,4.22-4.25C43.83,55.24,41.31,57.78,41.66,59.5z
			 M51.79,65.84c0.01-0.06,0.03-0.12,0.04-0.18c-0.64-0.11-1.28-0.22-1.93-0.33c-1.33-0.23-2.06-0.9-2.32-2.23
			c-0.13-0.66-0.15-1.35-0.21-2.01C46.59,64.03,48.44,66.03,51.79,65.84z M50.47,71.45c0,0.07,0.01,0.13,0.01,0.2
			c2.05-0.09,4.1-0.19,6.23-0.28C54.56,70.73,52.52,71.19,50.47,71.45z"/>
		<path d="M63.37,70.64c-0.82-0.7-1.65-1.41-2.47-2.11c0.06-0.07,0.12-0.15,0.18-0.22c1.22,0.84,2.45,1.68,3.67,2.52
			c0.03-0.04,0.06-0.08,0.09-0.13c-0.75-0.79-1.5-1.58-2.26-2.37c0.05-0.06,0.09-0.11,0.14-0.17c0.09,0.04,0.19,0.07,0.26,0.13
			c0.75,0.72,1.51,1.44,2.24,2.19c0.13,0.13,0.14,0.39,0.21,0.58c-0.19,0.05-0.39,0.16-0.56,0.13c-0.44-0.08-0.8-0.36-1.33-0.08
			c-0.25,0.13-0.76-0.12-1.1-0.31c-0.62-0.35-1.29-0.7-1.79-1.2c-1.1-1.11-2.5-1.39-3.94-1.68c-0.52-0.1-1.01-0.36-1.51-0.55
			c0.03-0.08,0.05-0.15,0.08-0.23c0.66,0.19,1.32,0.37,1.97,0.56c0.02-0.07,0.04-0.13,0.07-0.2c-1.05-0.36-2.12-0.68-3.15-1.09
			c-0.92-0.36-1.91-0.67-2.66-1.27c-1.2-0.95-1.55-2.33-1.14-3.84c0.21-0.78,0.78-1.23,1.44-1.25c-1.75,1.41-1.58,3.83,0.35,5.09
			c0.16,0.1,0.31,0.23,0.48,0.27c3.09,0.87,5.92,2.79,9.34,2.36c0.2-0.03,0.41,0.03,0.63,0.21c-0.97,0-1.94,0-2.9,0
			c-0.03,0.08-0.06,0.17-0.09,0.25c1.2,0.86,2.39,1.72,3.59,2.58C63.27,70.77,63.32,70.71,63.37,70.64z"/>
		<path d="M48.56,55.13c0.2-0.05,0.4-0.11,0.6-0.16c-0.14-1.27-0.08-1.44,0.84-1.7c0.21-0.06,0.58,0.01,0.72,0.17
			c0.33,0.38,0.05,1.29-0.36,1.63c0.25,0.44,0.7,0.87,0.66,1.26c-0.04,0.46-0.43,0.95-0.79,1.3c-1.44,1.39-2.97,2.68-4.82,3.51
			c-0.35,0.16-0.71,0.29-1.24,0.51c0.26-0.78,0.45-1.38,0.65-1.98c0.04,0.01,0.09,0.03,0.13,0.04c-0.16,0.49-0.31,0.97-0.47,1.46
			c0.04,0.03,0.08,0.05,0.12,0.08c0.15-0.11,0.38-0.18,0.44-0.33c0.36-0.9,0.68-1.81,1.1-2.93c-1.42,0.39-2.73,0.75-4.04,1.11
			c-0.02-0.02-0.03-0.05-0.05-0.07c0.45-0.22,0.88-0.52,1.36-0.65c0.89-0.24,1.81-0.4,2.72-0.57c1.31-0.24,2.12-0.63,3.31-1.66
			c-0.22-0.06-0.42-0.12-0.63-0.17c0.06-0.06,0.12-0.13,0.18-0.19c0.57,0.12,1.14,0.23,1.35,1.17c-0.36-0.26-0.57-0.41-0.65-0.47
			c-0.42,0.77-0.85,1.55-1.34,2.44c0.79-0.74,1.54-1.39,2.22-2.11c0.4-0.42,0.24-0.95-0.31-1.19c-0.64-0.28-1.3-0.42-1.94,0.06
			c-0.04,0.03-0.13,0-0.33,0c0.17-0.23,0.3-0.4,0.42-0.57C48.46,55.12,48.51,55.13,48.56,55.13z M48.75,58.01
			c-0.03-0.07-0.07-0.14-0.1-0.22c-0.27-0.08-0.57-0.27-0.81-0.21c-0.46,0.1-1.09,0.21-1.3,0.55c-0.43,0.67-0.64,1.49-0.94,2.25
			c0.07,0.05,0.13,0.11,0.2,0.16C46.79,59.7,47.77,58.86,48.75,58.01z M50.37,53.45c-1.02,0.43-1.06,0.5-0.82,1.02
			c0.24-0.16,0.5-0.34,0.84-0.57C50.39,53.86,50.38,53.68,50.37,53.45z"/>
		<path d="M45.73,68.91c0-0.13-0.03-0.37,0.01-0.38c0.58-0.19,1.15-0.43,1.75-0.48c0.41-0.04,0.85,0.19,1.27,0.32
			c0.97,0.32,1.82,0.13,2.62-0.57c-0.31-0.48-0.62-0.96-0.93-1.44c0.04-0.04,0.08-0.08,0.13-0.13c0.25,0.28,0.58,0.52,0.72,0.84
			c0.27,0.6,0.64,0.56,1.12,0.35c-0.18-0.41-0.34-0.79-0.5-1.17c0.05-0.04,0.1-0.07,0.15-0.11c0.84,1.16,1.82,2.04,3.53,1.87
			c-0.27,0.72-0.51,1.39-0.74,2c0.83,0.16,1.65,0.31,2.48,0.47c-0.01,0.07-0.02,0.14-0.04,0.22c-0.82-0.33-1.63-0.4-2.49-0.12
			c-0.44,0.14-0.43-0.25-0.32-0.52c0.2-0.54,0.45-1.07,0.55-1.72c-0.12,0.14-0.3,0.26-0.34,0.42c-0.35,1.35-1.01,1.82-2.42,1.74
			c-0.79-0.04-1.63-0.3-2.18,0.65c-0.06-0.08-0.11-0.16-0.17-0.24c0.22-0.23,0.41-0.57,0.68-0.68c0.35-0.14,0.78-0.16,1.16-0.12
			c1.84,0.2,2.08,0.08,2.82-1.59c-1.92-1.14-2.16-1.21-2.91,0.23c0.51,0.24,1.21-0.29,1.67,0.42c-0.48,0.03-0.9,0.05-1.4,0.08
			c0.15,0.18,0.23,0.27,0.33,0.38c-2.25,0.59-4.37,0.11-6.46-0.65c0.75,0.1,1.52,0.15,2.25,0.31c0.94,0.21,1.86,0.3,2.69,0.09
			c0.11-0.38,0.2-0.66,0.3-0.99c-1.01,0.69-1.99,0.4-2.97,0.07C47.2,68.16,46.4,68.16,45.73,68.91z"/>
		<path d="M59.58,64.34c0.51,0.34,1.03,0.66,1.51,1.03c0.4,0.3,0.76,0.64,1.12,0.99c0.3,0.28,0.58,0.59,0.84,0.9
			c0.14,0.18,0.23,0.4,0.31,0.55c-0.44-0.1-0.82-0.23-1.21-0.27c-0.95-0.12-1.9-0.2-2.85-0.29c0.01-0.06,0.01-0.13,0.02-0.19
			c1.02,0.06,2.04,0.11,3.06,0.17c0.02-0.09,0.03-0.19,0.05-0.28c-1.54-0.37-3.08-0.74-4.63-1.11c0.02-0.06,0.03-0.12,0.05-0.18
			c1.35,0.26,2.71,0.53,4.06,0.79c-0.87-1.26-2.5-1-3.63-1.94c0.48,0.15,0.87,0.27,1.26,0.39c0.02-0.03,0.03-0.05,0.05-0.08
			c-1.66-1.03-3.33-2.05-4.99-3.08c0.03-0.06,0.07-0.11,0.1-0.17c1.51,0.84,3.02,1.69,4.53,2.53
			C59.34,64.17,59.46,64.26,59.58,64.34z"/>
		<path d="M48.56,55.13c-0.05,0-0.1,0-0.15,0c-0.08-0.11-0.19-0.21-0.24-0.34c-0.27-0.67-0.67-0.58-1.2-0.17
			c0.2,0.09,0.36,0.17,0.53,0.25c-0.04,0.06-0.06,0.12-0.08,0.12c-0.45,0.01-0.9,0.02-1.35,0.01c-0.52-0.01-0.85-0.73-0.64-1.3
			c0.14-0.4,0.23-0.82,0.34-1.24c0.01-0.04,0-0.11,0.02-0.14c0.66-0.67,1.26-1.41,2-1.96c0.33-0.24,0.94-0.1,1.43-0.14
			c-0.35,0.24-0.79,0.78-1.09,0.71c-0.93-0.22-1.05,0.62-1.54,0.96c-0.69,0.48-0.71,0.77-0.2,1.44c-0.61-0.26-0.58,0.35-0.65,0.59
			c-0.06,0.2,0.19,0.49,0.33,0.8c0.18-0.52,0.29-0.84,0.41-1.16c0.17,0.15,0.35,0.31,0.56,0.5C48.13,53.86,48.38,54.02,48.56,55.13z
			"/>
		<path d="M59.58,64.34c-0.12-0.08-0.24-0.17-0.36-0.25c-1.22-0.75-2.05-1.85-2.81-3.03c-0.4-0.62-0.97-1.12-1.41-1.72
			c-0.29-0.4-0.48-0.89-0.58-1.39c0.19,0.25,0.39,0.49,0.58,0.74c0.87,1.08,1.73,2.17,2.63,3.23c0.58,0.69,1.24,1.31,1.84,1.98
			C59.56,64,59.55,64.19,59.58,64.34z"/>
		<path d="M50.65,50.94c-0.4-0.09-0.79-0.18-1.19-0.26c0.01-0.08,0.02-0.17,0.03-0.25c0.53,0.06,1.08,0.07,1.59,0.18
			c0.43,0.1,0.42,0.41,0.1,0.71c0.31,0.21,0.57,0.39,0.84,0.58c0.32,0.23,0.76,0.38,0.5,0.97c-0.06,0.15,0.21,0.44,0.32,0.67
			c0.42,0.81,0.84,1.62,1.27,2.43c-0.07,0.04-0.14,0.08-0.21,0.11c-0.61-1.09-1.32-2.14-1.79-3.28c-0.23-0.57-0.69-0.68-1.03-1.01
			c-0.2-0.2-0.35-0.44-0.53-0.67C50.58,51.06,50.61,51,50.65,50.94z"/>
		<path d="M41.66,59.5c-0.35-1.73,2.17-4.26,4.22-4.25C43.86,56.07,42.18,57.21,41.66,59.5z"/>
		<path d="M51.79,65.84c-3.35,0.2-5.2-1.81-4.42-4.75c0.07,0.65,0.08,1.34,0.21,2.01c0.26,1.33,1,2,2.32,2.23
			c0.64,0.11,1.28,0.22,1.93,0.33C51.82,65.72,51.81,65.78,51.79,65.84z"/>
		<path d="M50.47,71.45c2.05-0.26,4.09-0.72,6.24-0.09c-2.13,0.1-4.18,0.19-6.23,0.28C50.47,71.58,50.47,71.51,50.47,71.45z"/>
		<path class="st0" d="M46.46,53.57c-0.11,0.32-0.23,0.65-0.41,1.16c-0.14-0.31-0.39-0.61-0.33-0.8c0.08-0.25,0.04-0.85,0.65-0.59
			C46.4,53.42,46.43,53.49,46.46,53.57z"/>
		<path class="st0" d="M48.75,58.01c-0.98,0.84-1.97,1.69-2.95,2.53c-0.07-0.05-0.13-0.11-0.2-0.16c0.3-0.76,0.5-1.58,0.94-2.25
			c0.21-0.33,0.84-0.44,1.3-0.55c0.24-0.05,0.54,0.13,0.81,0.21C48.69,57.87,48.72,57.94,48.75,58.01z"/>
		<path class="st0" d="M50.37,53.45c0.01,0.24,0.02,0.41,0.02,0.45c-0.34,0.23-0.6,0.4-0.84,0.57
			C49.3,53.95,49.34,53.88,50.37,53.45z"/>
		<path class="st0" d="M45.73,68.91c0.67-0.75,1.47-0.75,2.35-0.44c0.97,0.33,1.96,0.62,2.97-0.07c-0.1,0.33-0.19,0.61-0.3,0.99
			c-0.83,0.21-1.75,0.12-2.69-0.09c-0.74-0.17-1.5-0.21-2.25-0.31C45.78,68.96,45.75,68.93,45.73,68.91z"/>
	</g>
</g>
</svg>
