<?xml version="1.0" encoding="utf-8"?>
<!-- Generator: Adobe Illustrator 28.0.0, SVG Export Plug-In . SVG Version: 6.00 Build 0)  -->
<svg version="1.1" id="Layer_1" xmlns="http://www.w3.org/2000/svg" xmlns:xlink="http://www.w3.org/1999/xlink" x="0px" y="0px"
	 viewBox="0 0 111.76 135.51" style="enable-background:new 0 0 111.76 135.51;" xml:space="preserve">
<style type="text/css">
	.st0{fill:#FFFFFF;}
</style>
<g>
	<g>
		<path class="st0" d="M111.76,135.51c-37.25,0-74.51,0-111.76,0C0,90.34,0,45.17,0,0c37.25,0,74.51,0,111.76,0
			C111.76,45.17,111.76,90.34,111.76,135.51z M49.97,75.81c-2.39-1.84-4.35-3.99-4.91-7.08c-0.42-2.29-0.1-4.46,1.37-6.33
			c0.89-1.13,1.8-2.26,2.86-3.23c3.28-2.98,7.27-4.28,11.61-4.58c1.28-0.09,2.58,0.1,3.91,0.17c-0.22-0.07-0.43-0.19-0.64-0.2
			c-1.48-0.06-2.97-0.27-4.43-0.12c-5.63,0.58-10.25,3.05-13.65,7.66c-1.77,2.4-2.05,5.06-1.26,7.82c0.88,3.05,3.11,5.11,5.58,6.92
			c0.04,0.03,0.12,0.02,0.3,0.04c-0.3-0.42-0.54-0.76-0.78-1.1c1.11-0.43,2.21-0.86,3.27-1.28c-1.07,2.74-1.07,2.74,0.21,4.82
			c-1.74-0.86-3.23-2.02-5.07-2.38c1.96,1.09,3.94,2.15,5.92,3.2c0.14,0.08,0.34,0.06,0.69,0.11c-0.98-1.18-2.26-2.01-2.09-3.6
			c0.15-1.46,1.1-2.47,2.11-3.48c-0.3,0-0.55,0.06-0.77,0.18c-1.29,0.67-2.59,1.35-3.87,2.04C50.19,75.48,50.1,75.67,49.97,75.81z
			 M48.12,76.66c-0.13-0.17-0.25-0.36-0.39-0.51c-2.33-2.48-3.62-5.41-3.86-8.81c-0.19-2.63,0.15-5.1,1.82-7.25
			c1.12-1.44,2.6-2.43,4.27-3.16c0.29-0.13,0.56-0.31,1.01-0.56c-1.75-0.11-4.49,1.88-7.29,5.04c0.17-0.57,0.33-1.16,0.62-1.66
			c0.98-1.68,2.01-3.34,3.03-5c0.98-1.59,1.99-1.89,3.71-1.11c0.89,0.41,1.74,0.88,2.62,1.29c0.19,0.09,0.45,0.12,0.64,0.06
			c2.81-0.84,5.68-1.12,8.6-0.82c0.81,0.08,1.62,0.23,2.45,0.36c-0.17,0.41-0.28,0.7-0.4,0.99c0.06,0.02,0.11,0.05,0.17,0.07
			c0.18-0.37,0.37-0.74,0.58-1.18c-0.36-0.1-0.6-0.19-0.84-0.24c-3.55-0.72-7.06-0.43-10.53,0.52c-0.22,0.06-0.52-0.01-0.74-0.11
			c-1.11-0.52-2.18-1.15-3.33-1.57c-1.23-0.45-2.22-0.1-2.92,0.98c-1.21,1.87-2.45,3.74-3.45,5.72c-0.55,1.08-0.64,2.39-0.93,3.61
			c-0.03,0.14,0.05,0.31,0.11,0.63c0.3-0.83,0.48-1.5,0.79-2.09c0.32-0.6,0.79-1.11,1.19-1.67C41.89,65.09,43.74,73.66,48.12,76.66z
			 M56.77,58.65c2.04,1.99,2.78,2.12,6.26,1.19c-1.66,1.35-2.88,3.02-3.81,5.03c-0.18-0.1-0.21-0.22-0.28-0.32
			C58,63.18,57.56,63,56.09,63.79c-1.8,0.96-3.6,1.95-5.29,3.08c-1.34,0.91-2.52,2.06-3.94,3.25c0.47-0.79,0.75-1.51,1.24-2.02
			c2.41-2.53,5.31-4.31,8.62-5.42c0.21-0.07,0.41-0.13,0.62-0.19c-0.16-0.09-0.3-0.12-0.43-0.08c-0.4,0.1-0.81,0.2-1.2,0.35
			c-2.62,1.03-4.93,2.57-7.06,4.38c-1,0.84-1.65,1.94-1.96,3.22c-0.06,0.26-0.04,0.54-0.05,0.81c0.29-0.22,0.41-0.47,0.59-0.67
			c2.63-3.04,5.99-5.03,9.61-6.64c0.78-0.35,1.07-0.16,1.56,0.57c0.21,0.3,0.58,0.75,0.81,0.71c0.33-0.06,0.62-0.47,0.89-0.77
			c0.13-0.15,0.2-0.37,0.28-0.56c0.4-0.99,1.07-1.76,1.83-2.51c0.91-0.89,1.78-1.85,2.48-2.9c0.5-0.76,0.68-1.72,1-2.6
			c-0.07-0.03-0.14-0.05-0.22-0.08c-0.1,0.25-0.17,0.51-0.31,0.73c-0.54,0.86-0.96,1.85-1.67,2.52c-1.94,1.81-5,1.41-6.24-0.67
			c-0.12-0.2-0.38-0.32-0.58-0.48c-0.1,0.26-0.3,0.53-0.28,0.77c0.07,0.64,0.24,1.26,0.37,1.89c-0.83,0.38-1.88,0.3-2.5,1.4
			c1.5,0,2.84,0,4.18,0c0.01-0.07,0.02-0.13,0.03-0.2c-0.95-0.12-1.89-0.23-2.84-0.35c0.36-0.18,0.74-0.26,1.11-0.34
			c0.47-0.1,0.69-0.3,0.46-0.83C57,59.7,56.93,59.22,56.77,58.65z M54.17,58.03c-1.35-0.67-5.25,2.04-6.53,3.78
			c-1.1,1.5-2.28,5.71-1.72,6.71c0.07-0.33,0.12-0.53,0.16-0.74c0.51-2.86,1.67-5.37,4.05-7.15c1.05-0.79,2.22-1.44,3.33-2.15
			C53.68,58.33,53.91,58.19,54.17,58.03z M60.63,56.86c0.72-0.06,1.15-0.25,1.18-0.8c0.01-0.17-0.36-0.5-0.55-0.5
			c-0.44,0.01-1.07-0.06-1.06,0.64C60.21,56.44,60.52,56.69,60.63,56.86z"/>
		<path d="M48.12,76.66c-4.38-3-6.23-11.57-3.06-16.49c-0.4,0.55-0.87,1.07-1.19,1.67c-0.32,0.59-0.49,1.27-0.79,2.09
			c-0.06-0.32-0.14-0.49-0.11-0.63c0.28-1.21,0.38-2.52,0.93-3.61c1-1.98,2.24-3.85,3.45-5.72c0.7-1.08,1.69-1.43,2.92-0.98
			c1.15,0.42,2.21,1.06,3.33,1.57c0.22,0.1,0.52,0.18,0.74,0.11c3.47-0.95,6.98-1.25,10.53-0.52c0.24,0.05,0.48,0.13,0.84,0.24
			c-0.22,0.44-0.4,0.81-0.58,1.18c-0.06-0.02-0.11-0.05-0.17-0.07c0.12-0.29,0.23-0.58,0.4-0.99c-0.84-0.12-1.64-0.27-2.45-0.36
			c-2.92-0.3-5.79-0.03-8.6,0.82c-0.19,0.06-0.46,0.03-0.64-0.06c-0.88-0.41-1.74-0.88-2.62-1.29c-1.71-0.78-2.73-0.48-3.71,1.11
			c-1.02,1.66-2.05,3.32-3.03,5c-0.3,0.51-0.45,1.09-0.62,1.66c2.8-3.16,5.54-5.14,7.29-5.04c-0.44,0.25-0.71,0.44-1.01,0.56
			c-1.67,0.72-3.15,1.71-4.27,3.16c-1.67,2.14-2.01,4.62-1.82,7.25c0.25,3.4,1.53,6.33,3.86,8.81
			C47.87,76.3,47.99,76.49,48.12,76.66z"/>
		<path d="M56.77,58.65c0.15,0.57,0.23,1.05,0.42,1.48c0.23,0.53,0.02,0.73-0.46,0.83c-0.38,0.08-0.75,0.16-1.11,0.34
			c0.95,0.12,1.89,0.23,2.84,0.35c-0.01,0.07-0.02,0.13-0.03,0.2c-1.34,0-2.68,0-4.18,0c0.62-1.1,1.67-1.02,2.5-1.4
			c-0.13-0.62-0.3-1.25-0.37-1.89c-0.03-0.24,0.18-0.51,0.28-0.77c0.2,0.16,0.46,0.27,0.58,0.48c1.24,2.09,4.3,2.49,6.24,0.67
			c0.72-0.67,1.14-1.66,1.67-2.52c0.14-0.22,0.21-0.49,0.31-0.73c0.07,0.03,0.14,0.05,0.22,0.08c-0.32,0.87-0.5,1.84-1,2.6
			c-0.69,1.06-1.57,2.02-2.48,2.9c-0.76,0.75-1.44,1.51-1.83,2.51c-0.08,0.19-0.14,0.41-0.28,0.56c-0.27,0.3-0.56,0.71-0.89,0.77
			c-0.23,0.04-0.6-0.41-0.81-0.71c-0.49-0.72-0.78-0.91-1.56-0.57c-3.62,1.61-6.98,3.6-9.61,6.64c-0.18,0.2-0.3,0.45-0.59,0.67
			c0.01-0.27-0.01-0.55,0.05-0.81c0.31-1.28,0.96-2.38,1.96-3.22c2.14-1.81,4.44-3.35,7.06-4.38c0.39-0.15,0.79-0.24,1.2-0.35
			c0.13-0.03,0.27-0.01,0.43,0.08c-0.21,0.06-0.42,0.12-0.62,0.19c-3.31,1.11-6.21,2.9-8.62,5.42c-0.49,0.51-0.77,1.23-1.24,2.02
			c1.43-1.19,2.6-2.34,3.94-3.25c1.69-1.14,3.49-2.13,5.29-3.08c1.47-0.78,1.91-0.61,2.85,0.77c0.07,0.1,0.1,0.22,0.28,0.32
			c0.93-2.01,2.15-3.68,3.81-5.03C59.56,60.77,58.81,60.64,56.77,58.65z"/>
		<path d="M49.95,75.79c0.24,0.34,0.48,0.68,0.78,1.1c-0.18-0.02-0.25-0.01-0.3-0.04c-2.47-1.82-4.7-3.87-5.58-6.92
			c-0.79-2.76-0.52-5.42,1.26-7.82c3.4-4.61,8.02-7.08,13.65-7.66c1.46-0.15,2.95,0.06,4.43,0.12c0.21,0.01,0.42,0.13,0.64,0.2
			c-1.33-0.06-2.63-0.25-3.91-0.17c-4.34,0.3-8.34,1.6-11.61,4.58c-1.06,0.96-1.97,2.1-2.86,3.23c-1.48,1.87-1.79,4.04-1.37,6.33
			c0.57,3.09,2.52,5.24,4.91,7.08L49.95,75.79z"/>
		<path d="M54.17,58.03c-0.26,0.17-0.49,0.31-0.71,0.45c-1.11,0.71-2.28,1.36-3.33,2.15c-2.38,1.78-3.54,4.29-4.05,7.15
			c-0.04,0.2-0.09,0.41-0.16,0.74c-0.56-1,0.62-5.21,1.72-6.71C48.92,60.06,52.82,57.35,54.17,58.03z"/>
		<path d="M49.97,75.81c0.12-0.14,0.22-0.33,0.38-0.41c1.28-0.69,2.58-1.37,3.87-2.04c0.22-0.11,0.46-0.18,0.77-0.18
			c-1,1.01-1.95,2.02-2.11,3.48c-0.17,1.59,1.11,2.43,2.09,3.6c-0.35-0.05-0.54-0.03-0.69-0.11c-1.98-1.05-3.96-2.11-5.92-3.2
			c1.84,0.36,3.33,1.52,5.07,2.38c-1.28-2.09-1.28-2.09-0.21-4.82c-1.06,0.41-2.17,0.84-3.27,1.28
			C49.95,75.79,49.97,75.81,49.97,75.81z"/>
		<path d="M60.63,56.86c-0.11-0.17-0.42-0.42-0.43-0.67c-0.01-0.7,0.62-0.63,1.06-0.64c0.19,0,0.55,0.33,0.55,0.5
			C61.78,56.6,61.35,56.8,60.63,56.86z M61.55,56.19c-0.04-0.13-0.07-0.25-0.11-0.38c-0.29,0.06-0.58,0.12-0.87,0.18
			c0.04,0.16,0.09,0.32,0.13,0.48C60.99,56.38,61.27,56.29,61.55,56.19z"/>
		<path class="st0" d="M61.55,56.19c-0.28,0.09-0.56,0.19-0.85,0.28c-0.04-0.16-0.09-0.32-0.13-0.48c0.29-0.06,0.58-0.12,0.87-0.18
			C61.48,55.94,61.51,56.07,61.55,56.19z"/>
	</g>
</g>
</svg>
