<?xml version="1.0" encoding="utf-8"?>
<!-- Generator: Adobe Illustrator 28.0.0, SVG Export Plug-In . SVG Version: 6.00 Build 0)  -->
<svg version="1.1" id="Layer_1" xmlns="http://www.w3.org/2000/svg" xmlns:xlink="http://www.w3.org/1999/xlink" x="0px" y="0px"
	 viewBox="0 0 111.76 135.51" style="enable-background:new 0 0 111.76 135.51;" xml:space="preserve">
<style type="text/css">
	.st0{fill:#FFFFFF;}
</style>
<g>
	<g>
		<path class="st0" d="M0,0c37.25,0,74.51,0,111.76,0c0,45.17,0,90.34,0,135.51c-37.25,0-74.51,0-111.76,0C0,90.34,0,45.17,0,0z
			 M52.12,65.25c-0.51,0.17-1.02,0.46-1.54,0.47c-1.34,0.02-2.68-0.02-4.01-0.15c-0.91-0.09-1.43,0.34-1.15,1.23
			c0.16,0.52,0.42,1.04,0.75,1.47c1.11,1.43,2.33,1.69,3.98,0.97c0.42-0.18,0.86-0.39,1.31-0.43c1.43-0.13,2.86-0.23,4.29-0.26
			c2.27-0.05,3.1-0.8,3.43-3.06c0.21-1.39-0.1-2.89,0.89-4.28c-0.65,0.49-0.8,0.82-0.9,1.63c-0.13,1.06-0.23,2.12-0.42,3.17
			c-0.28,1.57-1.09,2.21-2.7,2.23c-0.81,0.01-1.63-0.01-2.44,0c-1.34,0.03-2.66,0.2-3.82,0.88c-1.9,1.12-4.07-1.19-4.15-2.63
			c-0.03-0.64,0.31-0.86,0.92-0.76c1.14,0.17,2.28,0.34,3.43,0.38C50.76,66.15,51.55,65.94,52.12,65.25z M56.25,61.89
			c-0.06-0.03-0.12-0.06-0.18-0.09c0.21-0.85,0.41-1.7,0.64-2.54c0.4-1.51,0.12-2.88-0.69-4.19c-0.49-0.79-0.92-1.62-1.37-2.43
			c0.18,0.65,0.31,1.4,0.71,1.94c1.38,1.84,1.44,3.77,0.64,5.88c-0.69-1.34-1.93-1.81-3.09-2.2c0.77,0.52,1.86,0.93,2.4,1.72
			c0.53,0.77,0.49,1.93,0.67,2.74c0.42-0.58,0.87-1.29,1.42-1.93c0.53-0.62,1.23-0.79,2.01-0.42c0.4,0.19,0.83,0.32,1.24,0.48
			c0.03-0.09,0.07-0.18,0.1-0.28c-0.7-0.22-1.39-0.6-2.09-0.63C57.36,59.87,56.88,61.02,56.25,61.89z M54.51,61.53
			c-0.13-0.67-0.43-1.23-1.02-1.57c-0.83-0.47-1.66-0.93-2.53-1.32c-1.47-0.68-2.9-1.35-3.71-2.89c-0.27-0.51-0.71-0.47-0.94,0.05
			c-0.28,0.64-0.2,1.3,0.02,1.94c0.04-0.55,0.01-1.09,0.05-1.63c0.01-0.15,0.19-0.36,0.33-0.39c0.1-0.03,0.33,0.15,0.39,0.29
			c0.64,1.32,1.8,2.03,3.05,2.63C51.76,59.39,53.39,60.07,54.51,61.53z M51.15,65.31c-0.3-0.54-0.59-1.11-0.93-1.63
			c-0.1-0.15-0.4-0.31-0.53-0.26c-0.48,0.2-0.66-0.05-0.87-0.41c-0.24-0.41-0.55-0.78-0.82-1.17c-0.15-0.22-0.3-0.46-0.42-0.7
			c-0.14-0.26-0.2-0.59-0.39-0.8c-0.42-0.45-0.53-0.96-0.46-1.54c0.02-0.23,0-0.47,0-0.7c-0.45,0.64-0.54,1.34-0.15,1.94
			c0.53,0.82,0.61,1.93,1.55,2.49c0.09,0.05,0.14,0.19,0.17,0.3c0.23,0.77,0.7,1.18,1.51,0.98C50.15,64.5,50.43,65.17,51.15,65.31z
			 M52.19,57.88c0.04,0.01,0.07,0.02,0.11,0.03c0.23-0.88,0.47-1.76,0.7-2.64c-0.09-0.02-0.18-0.04-0.27-0.07
			C52.55,56.09,52.37,56.98,52.19,57.88z"/>
		<path d="M52.12,65.25c-0.57,0.69-1.36,0.9-2.15,0.87c-1.15-0.04-2.29-0.21-3.43-0.38c-0.61-0.09-0.95,0.13-0.92,0.76
			c0.07,1.44,2.25,3.75,4.15,2.63c1.16-0.68,2.49-0.86,3.82-0.88c0.81-0.02,1.63,0.01,2.44,0c1.61-0.02,2.42-0.66,2.7-2.23
			c0.19-1.05,0.29-2.11,0.42-3.17c0.1-0.82,0.26-1.14,0.9-1.63c-0.99,1.39-0.68,2.89-0.89,4.28c-0.34,2.25-1.16,3.01-3.43,3.06
			c-1.43,0.03-2.87,0.13-4.29,0.26c-0.45,0.04-0.89,0.25-1.31,0.43c-1.65,0.72-2.87,0.46-3.98-0.97c-0.33-0.43-0.59-0.95-0.75-1.47
			c-0.28-0.9,0.24-1.32,1.15-1.23c1.33,0.13,2.68,0.17,4.01,0.15C51.1,65.71,51.61,65.42,52.12,65.25z"/>
		<path d="M56.25,61.89c0.63-0.87,1.12-2.02,2.4-1.96c0.71,0.04,1.4,0.41,2.09,0.63c-0.03,0.09-0.07,0.18-0.1,0.28
			c-0.41-0.16-0.84-0.29-1.24-0.48c-0.79-0.37-1.48-0.2-2.01,0.42c-0.55,0.64-1,1.35-1.42,1.93c-0.17-0.8-0.14-1.96-0.67-2.74
			c-0.54-0.79-1.63-1.2-2.4-1.72c1.16,0.39,2.4,0.86,3.09,2.2c0.8-2.11,0.74-4.04-0.64-5.88c-0.4-0.54-0.53-1.29-0.71-1.94
			c0.45,0.81,0.88,1.64,1.37,2.43c0.81,1.31,1.09,2.69,0.69,4.19c-0.22,0.84-0.42,1.69-0.64,2.54
			C56.13,61.83,56.19,61.86,56.25,61.89z"/>
		<path d="M54.51,61.53c-1.12-1.46-2.76-2.14-4.34-2.9c-1.25-0.6-2.41-1.31-3.05-2.63c-0.07-0.14-0.29-0.31-0.39-0.29
			c-0.14,0.03-0.32,0.25-0.33,0.39c-0.04,0.54-0.02,1.09-0.05,1.63c-0.23-0.64-0.31-1.3-0.02-1.94c0.23-0.52,0.67-0.56,0.94-0.05
			c0.81,1.54,2.24,2.22,3.71,2.89c0.86,0.4,1.7,0.85,2.53,1.32C54.09,60.3,54.38,60.86,54.51,61.53z"/>
		<path d="M51.15,65.31c-0.72-0.14-1-0.81-1.34-1.49c-0.82,0.19-1.29-0.21-1.51-0.98c-0.03-0.11-0.08-0.24-0.17-0.3
			c-0.94-0.57-1.02-1.67-1.55-2.49c-0.39-0.61-0.3-1.3,0.15-1.94c0,0.23,0.02,0.47,0,0.7c-0.06,0.58,0.05,1.09,0.46,1.54
			c0.19,0.21,0.25,0.54,0.39,0.8c0.13,0.24,0.27,0.47,0.42,0.7c0.27,0.39,0.58,0.76,0.82,1.17c0.21,0.36,0.39,0.6,0.87,0.41
			c0.12-0.05,0.43,0.11,0.53,0.26C50.56,64.2,50.85,64.76,51.15,65.31z"/>
		<path d="M52.19,57.88c0.18-0.89,0.36-1.78,0.55-2.67c0.09,0.02,0.18,0.04,0.27,0.07c-0.23,0.88-0.47,1.76-0.7,2.64
			C52.26,57.9,52.22,57.89,52.19,57.88z"/>
	</g>
</g>
</svg>
