<?xml version="1.0" encoding="utf-8"?>
<!-- Generator: Adobe Illustrator 28.0.0, SVG Export Plug-In . SVG Version: 6.00 Build 0)  -->
<svg version="1.1" id="Layer_1" xmlns="http://www.w3.org/2000/svg" xmlns:xlink="http://www.w3.org/1999/xlink" x="0px" y="0px"
	 viewBox="0 0 111.76 135.51" style="enable-background:new 0 0 111.76 135.51;" xml:space="preserve">
<style type="text/css">
	.st0{fill:none;}
</style>
<g>
	<g>
		<path class="st0" d="M111.76,135.51c-37.25,0-74.51,0-111.76,0C0,90.34,0,45.17,0,0c37.25,0,74.51,0,111.76,0
			C111.76,45.17,111.76,90.34,111.76,135.51z M51.12,64.81c-0.18,0.09-0.41,0.13-0.53,0.28c-0.64,0.78-1.09,1.66-1.21,2.69
			c-0.16,1.4,0.27,2.65,0.98,3.84c-0.55,0.44-1.21,0.63-1.71,0.31c-0.36-0.24-0.54-0.87-0.64-1.36c-0.11-0.51,0.01-1.07-0.05-1.6
			c-0.03-0.28-0.23-0.54-0.35-0.81c-0.23,0.19-0.62,0.36-0.67,0.59c-0.19,0.87-0.39,1.78-0.35,2.66c0.08,1.65,0.6,2.08,2.23,2.1
			c2.46,0.03,4.93,0.03,7.39,0.03c0.19,0,0.38-0.04,0.45-0.05c-0.4-1.24-0.77-2.42-1.16-3.6c-0.34-1.02-1.06-1.68-2.07-2
			c-0.37-0.12-0.82-0.26-1.03,0.23c-0.21,0.5,0.23,0.62,0.55,0.79c0.82,0.43,1.35,1.06,1.37,2.02c0.01,0.63-0.31,0.94-0.93,0.96
			c-1.04,0.04-2.11-0.7-2.59-1.81c-0.6-1.4-0.34-2.72,0.41-3.99c0.16-0.27,0.24-0.58,0.35-0.87c0.74,0.72,1.58,1.26,2.72,1.56
			c0.06-0.54,0.1-0.99,0.15-1.45c-2.2-0.15-2.86-1.39-1.88-3.22c0.49-0.91,0.89-1.88,1.29-2.84c0.19-0.46,0.28-0.96,0.46-1.58
			c0.4,0.6,0.73,1.1,1.14,1.71c0.04-1.09-0.67-1.52-1.24-2.16c-0.1,0.28-0.16,0.45-0.23,0.62c-0.61,1.47-1.16,2.97-1.84,4.4
			c-0.81,1.7-0.08,3.13,1.81,3.35c0.06,0.01,0.12,0.05,0.21,0.1c-0.04,0.2-0.08,0.39-0.15,0.75c-0.68-0.43-1.24-0.81-1.84-1.14
			c-0.17-0.09-0.4-0.06-0.61-0.09c-0.75,0.79-1.25,1.7-1.43,2.79c-0.35,2.12,1.16,4.23,3.07,4.29c1.11,0.04,1.73-0.69,1.54-1.79
			c-0.19-1.06-0.88-1.7-1.75-2.22c1.08,0.21,1.81,0.83,2.12,1.9c0.28,0.97,0.57,1.93,0.86,2.93c-1.13,0-2.33-0.01-3.54,0
			c-1.23,0.01-2.47-0.04-3.69,0.06c-1,0.08-1.59-0.11-1.71-1.08c-0.12-0.99,0.03-2.01,0.09-3.02c0.01-0.19,0.2-0.36,0.3-0.55
			c0.15,0.78,0.14,1.52,0.24,2.25c0.21,1.53,1.22,2,2.6,1.28c0.39-0.2,0.5-0.4,0.25-0.81c-1.38-2.29-1.1-4.45,0.58-6.48
			c0.1-0.04,0.2-0.07,0.31-0.11c-1-1.6-0.59-1.83,0.37-2.92c0.96-1.08,1.5-2.34,1.65-3.77c0.1-0.93,0.16-1.87,0.25-2.93
			c0.89,1.37,1.42,2.99,3.37,2.95c1.93-0.04,2.55-1.44,3.06-3.06c0.41,1.24,0.74,2.35,1.16,3.43c0.39,1.01,0.92,1.92,2.01,2.38
			c0.22,0.09,0.45,0.51,0.43,0.75c-0.15,1.5-0.61,2.89-1.6,4.09c-1.71,2.06-2.36,4.49-2.49,7.11c-0.02,0.41,0.1,0.82,0.15,1.23
			c0.07-0.01,0.14-0.01,0.21-0.02c0.02-0.34,0.05-0.68,0.06-1.01c0.14-2.54,0.72-4.92,2.36-6.94c1.23-1.51,1.83-3.21,1.64-5.16
			c-1-0.24-1.72-0.9-2.11-1.81c-0.53-1.23-0.92-2.52-1.39-3.78c-0.09-0.23-0.23-0.45-0.43-0.85c-0.19,0.42-0.3,0.64-0.4,0.86
			c-0.18,0.42-0.36,0.85-0.54,1.28c-0.53,1.24-3.14,1.74-3.98,0.21c-0.28-0.51-0.6-1-0.93-1.47c-0.2-0.29-0.47-0.53-0.7-0.79
			c-0.09,0.36-0.24,0.71-0.25,1.07c-0.05,2.42-0.4,4.7-2.23,6.55C50.2,62.96,50.3,63.61,51.12,64.81z M55.81,58.95
			c0.02,0.06,0.04,0.12,0.05,0.17c0.25-0.11,0.49-0.27,0.75-0.31c0.7-0.12,1.42-0.33,2.1-0.24c1.65,0.23,2.8,1.28,3.67,2.64
			c0.56,0.88,0.58,1.82,0.03,2.7c-0.34,0.55-0.76,1.06-1.21,1.52c-1.58,1.62-2.4,3.56-2.49,5.81c-0.03,0.75-0.01,1.5-0.01,2.23
			c-0.95-0.37-1.38-2.53-0.84-4.36c0.05,0.72,0.11,1.49,0.16,2.26c0.05-0.01,0.1-0.01,0.15-0.02c0.05-1.17,0.1-2.33,0.16-3.54
			c-0.67,0.05-0.77,0.55-0.79,0.94c-0.06,1.2-0.11,2.41-0.01,3.6c0.09,1.03,1.05,1.76,1.91,1.82c-0.09-0.46-0.21-0.96-0.3-1.47
			c-0.03-0.18-0.03-0.37-0.03-0.56c-0.05-2.48,0.53-4.74,2.33-6.57c0.42-0.43,0.81-0.9,1.15-1.4c0.71-1.05,0.71-2.14,0.04-3.21
			c-0.79-1.24-1.87-2.11-3.28-2.55C58.06,58.02,56.89,58.23,55.81,58.95z M53.19,63.45c0.01,0.84,0.55,1.56,1.17,1.57
			c0.48,0.01,0.98-0.49,0.99-0.99c0.01-0.73-0.59-1.48-1.2-1.49C53.5,62.53,53.18,62.83,53.19,63.45z M59.23,63.57
			c-1.09-0.57-1.09-0.57-0.4-1.42c-0.41,0.02-0.83,0.04-1.24,0.06c-0.01,0.07-0.02,0.14-0.03,0.21c0.16,0.13,0.32,0.27,0.67,0.55
			c-0.55,0.24-0.98,0.42-1.44,0.62c0.01,0.01,0.05,0.15,0.09,0.15C57.67,63.69,58.44,63.48,59.23,63.57z M60.5,64.06
			c0.56,0.03,0.93-0.12,0.93-0.71c0.01-0.6-0.41-1.09-0.94-1.08c-0.56,0.01-0.85,0.33-0.9,0.86C59.54,63.65,59.98,64.05,60.5,64.06z
			 M59.35,61.23c0.01,0.1,0.01,0.2,0.02,0.31c0.25,0.15,0.53,0.43,0.76,0.4c0.21-0.03,0.55-0.42,0.53-0.61
			c-0.03-0.26-0.36-0.49-0.55-0.74C59.85,60.8,59.6,61.02,59.35,61.23z M55.91,61.06c-0.09,0.01-0.18,0.01-0.28,0.02
			c-0.14,0.23-0.36,0.44-0.4,0.69c-0.1,0.57,0.37,0.7,0.78,0.73c0.15,0.01,0.48-0.35,0.45-0.45C56.35,61.71,56.11,61.39,55.91,61.06
			z"/>
		<path d="M51.56,65.22c-0.11,0.29-0.19,0.61-0.35,0.87c-0.75,1.27-1.01,2.59-0.41,3.99c0.48,1.11,1.55,1.85,2.59,1.81
			c0.63-0.02,0.94-0.33,0.93-0.96c-0.01-0.97-0.55-1.59-1.37-2.02c-0.33-0.17-0.77-0.29-0.55-0.79c0.21-0.49,0.66-0.35,1.03-0.23
			c1.01,0.32,1.73,0.98,2.07,2c0.39,1.17,0.76,2.36,1.16,3.6c-0.06,0.01-0.26,0.05-0.45,0.05c-2.46-0.01-4.93-0.01-7.39-0.03
			c-1.63-0.02-2.15-0.45-2.23-2.1c-0.04-0.88,0.16-1.78,0.35-2.66c0.05-0.23,0.44-0.39,0.67-0.59c0.12,0.27,0.32,0.53,0.35,0.81
			c0.06,0.53-0.06,1.08,0.05,1.6c0.1,0.49,0.28,1.12,0.64,1.36c0.5,0.33,1.16,0.13,1.71-0.31c-0.7-1.19-1.13-2.44-0.98-3.84
			c0.11-1.03,0.56-1.91,1.21-2.69c0.12-0.14,0.35-0.19,0.53-0.28l-0.02-0.02c-1.68,2.03-1.96,4.18-0.58,6.48
			c0.25,0.41,0.14,0.6-0.25,0.81c-1.38,0.72-2.38,0.25-2.6-1.28c-0.1-0.72-0.08-1.46-0.24-2.25c-0.11,0.18-0.29,0.36-0.3,0.55
			c-0.07,1.01-0.22,2.03-0.09,3.02c0.12,0.97,0.71,1.16,1.71,1.08c1.23-0.1,2.46-0.05,3.69-0.06c1.2-0.01,2.41,0,3.54,0
			c-0.29-0.99-0.57-1.96-0.86-2.93c-0.32-1.07-1.04-1.69-2.12-1.9c0.86,0.52,1.56,1.17,1.75,2.22c0.19,1.09-0.43,1.82-1.54,1.79
			c-1.92-0.06-3.42-2.17-3.07-4.29c0.18-1.09,0.68-2,1.43-2.79L51.56,65.22z"/>
		<path d="M51.12,64.81c-0.83-1.2-0.93-1.85-0.05-2.74c1.83-1.84,2.18-4.13,2.23-6.55c0.01-0.36,0.16-0.71,0.25-1.07
			c0.24,0.26,0.5,0.5,0.7,0.79c0.33,0.47,0.65,0.96,0.93,1.47c0.84,1.53,3.45,1.04,3.98-0.21c0.18-0.43,0.36-0.85,0.54-1.28
			c0.1-0.22,0.2-0.44,0.4-0.86c0.2,0.4,0.34,0.61,0.43,0.85c0.46,1.26,0.85,2.55,1.39,3.78c0.39,0.91,1.11,1.57,2.11,1.81
			c0.18,1.96-0.42,3.65-1.64,5.16c-1.64,2.02-2.23,4.4-2.36,6.94c-0.02,0.34-0.04,0.68-0.06,1.01c-0.07,0.01-0.14,0.01-0.21,0.02
			c-0.05-0.41-0.17-0.82-0.15-1.23c0.13-2.61,0.79-5.05,2.49-7.11c0.99-1.19,1.45-2.58,1.6-4.09c0.02-0.24-0.21-0.66-0.43-0.75
			c-1.09-0.46-1.62-1.37-2.01-2.38c-0.41-1.08-0.74-2.19-1.16-3.43c-0.51,1.61-1.13,3.02-3.06,3.06c-1.95,0.04-2.48-1.58-3.37-2.95
			c-0.09,1.06-0.15,2-0.25,2.93c-0.16,1.42-0.7,2.68-1.65,3.77c-0.96,1.08-1.37,1.32-0.37,2.92c-0.11,0.04-0.21,0.08-0.31,0.11
			C51.11,64.79,51.12,64.81,51.12,64.81z"/>
		<path d="M55.81,58.95c1.08-0.73,2.25-0.93,3.53-0.52c1.41,0.45,2.5,1.31,3.28,2.55c0.68,1.07,0.67,2.16-0.04,3.21
			c-0.34,0.5-0.73,0.97-1.15,1.4c-1.8,1.83-2.38,4.09-2.33,6.57c0,0.19,0,0.37,0.03,0.56c0.09,0.51,0.2,1.01,0.3,1.47
			c-0.87-0.05-1.82-0.79-1.91-1.82c-0.1-1.19-0.05-2.4,0.01-3.6c0.02-0.39,0.12-0.9,0.79-0.94c-0.05,1.2-0.1,2.37-0.16,3.54
			c-0.05,0.01-0.1,0.01-0.15,0.02c-0.06-0.77-0.11-1.54-0.16-2.26c-0.54,1.84-0.11,3.99,0.84,4.36c0-0.73-0.03-1.48,0.01-2.23
			c0.1-2.25,0.91-4.19,2.49-5.81c0.45-0.46,0.87-0.97,1.21-1.52c0.55-0.88,0.54-1.82-0.03-2.7c-0.87-1.36-2.02-2.41-3.67-2.64
			c-0.68-0.09-1.4,0.12-2.1,0.24c-0.26,0.04-0.5,0.2-0.75,0.31C55.85,59.07,55.83,59.01,55.81,58.95z"/>
		<path d="M51.57,65.23c0.2,0.03,0.44,0,0.61,0.09c0.59,0.34,1.16,0.72,1.84,1.14c0.07-0.36,0.11-0.55,0.15-0.75
			c-0.1-0.05-0.15-0.09-0.21-0.1c-1.9-0.22-2.62-1.64-1.81-3.35c0.68-1.44,1.24-2.93,1.84-4.4c0.07-0.17,0.13-0.34,0.23-0.62
			c0.58,0.64,1.28,1.07,1.24,2.16c-0.41-0.61-0.74-1.11-1.14-1.71c-0.17,0.62-0.27,1.12-0.46,1.58c-0.4,0.96-0.8,1.93-1.29,2.84
			c-0.98,1.83-0.33,3.06,1.88,3.22c-0.05,0.46-0.1,0.91-0.15,1.45c-1.14-0.3-1.98-0.85-2.73-1.56
			C51.56,65.22,51.57,65.23,51.57,65.23z"/>
		<path d="M53.19,63.45c-0.01-0.62,0.31-0.92,0.97-0.91c0.6,0.01,1.21,0.76,1.2,1.49c-0.01,0.5-0.51,1-0.99,0.99
			C53.74,65.01,53.2,64.29,53.19,63.45z M53.97,62.91c-0.36-0.07-0.43,0.25-0.42,0.65c0.01,0.52,0.09,1.05,0.73,1.01
			c0.25-0.02,0.6-0.4,0.67-0.67C55.06,63.42,54.56,62.91,53.97,62.91z"/>
		<path d="M59.23,63.57c-0.79-0.09-1.56,0.12-2.34,0.17c-0.04,0-0.08-0.13-0.09-0.15c0.46-0.2,0.89-0.38,1.44-0.62
			c-0.35-0.29-0.51-0.42-0.67-0.55c0.01-0.07,0.02-0.14,0.03-0.21c0.41-0.02,0.83-0.04,1.24-0.06
			C58.14,63.01,58.14,63.01,59.23,63.57z"/>
		<path d="M60.5,64.06c-0.52,0-0.95-0.41-0.91-0.93c0.05-0.53,0.34-0.85,0.9-0.86c0.53-0.01,0.95,0.48,0.94,1.08
			C61.42,63.94,61.06,64.09,60.5,64.06z M61.21,63.46c0.01-0.1,0.02-0.2,0.03-0.29c-0.26-0.2-0.49-0.52-0.78-0.57
			c-0.16-0.03-0.56,0.38-0.56,0.59c0,0.24,0.29,0.65,0.51,0.69C60.65,63.92,60.95,63.61,61.21,63.46z"/>
		<path d="M59.35,61.23c0.25-0.21,0.5-0.43,0.75-0.64c0.2,0.24,0.52,0.47,0.55,0.74c0.02,0.19-0.31,0.58-0.53,0.61
			c-0.23,0.03-0.5-0.25-0.76-0.4C59.36,61.43,59.35,61.33,59.35,61.23z"/>
		<path d="M55.91,61.06c0.19,0.33,0.43,0.64,0.55,0.99c0.03,0.1-0.3,0.46-0.45,0.45c-0.41-0.03-0.88-0.16-0.78-0.73
			c0.04-0.25,0.26-0.46,0.4-0.69C55.73,61.07,55.82,61.07,55.91,61.06z"/>
		<path class="st0" d="M53.97,62.91c0.59,0,1.09,0.51,0.98,0.99c-0.06,0.27-0.42,0.65-0.67,0.67c-0.65,0.04-0.72-0.49-0.73-1.01
			C53.54,63.16,53.61,62.84,53.97,62.91z"/>
		<path class="st0" d="M61.21,63.46c-0.27,0.15-0.56,0.46-0.79,0.41c-0.22-0.04-0.51-0.44-0.51-0.69c0-0.21,0.4-0.62,0.56-0.59
			c0.28,0.05,0.52,0.36,0.78,0.57C61.24,63.27,61.23,63.36,61.21,63.46z"/>
	</g>
</g>
</svg>
